<?xml version="1.0" encoding="utf-8"?>
<!-- Generator: Adobe Illustrator 21.0.2, SVG Export Plug-In . SVG Version: 6.00 Build 0)  -->
<svg version="1.0" id="Layer_1" xmlns="http://www.w3.org/2000/svg" xmlns:xlink="http://www.w3.org/1999/xlink" x="0px" y="0px"
	 viewBox="0 0 60 60" style="enable-background:new 0 0 60 60;" xml:space="preserve">
<style type="text/css">
	.st0{fill:#FFFFFF;}
</style>
<g>
	<path class="st0" d="M13,53.1h34c3.4,0,6.1-2.7,6.1-6.1V13c0-3.4-2.7-6.1-6.1-6.1H13c-3.4,0-6.1,2.7-6.1,6.1v34
		C6.9,50.4,9.6,53.1,13,53.1z M10.5,13c0-1.4,1.1-2.5,2.5-2.5h34c1.4,0,2.5,1.1,2.5,2.5v34c0,1.4-1.1,2.5-2.5,2.5H13
		c-1.4,0-2.5-1.1-2.5-2.5V13z"/>
	<path class="st0" d="M17.3,33.3l8.7,6.6c0,0,0,0,0.1,0c0,0,0.1,0,0.1,0.1c0,0,0.1,0,0.1,0.1c0,0,0.1,0,0.1,0.1c0,0,0.1,0,0.1,0
		c0,0,0.1,0,0.1,0c0,0,0.1,0,0.1,0c0,0,0.1,0,0.1,0c0,0,0.1,0,0.1,0c0,0,0.1,0,0.1,0c0,0,0.1,0,0.1,0c0,0,0.1,0,0.1,0
		c0,0,0.1,0,0.2,0c0,0,0,0,0.1,0c0.1,0,0.1,0,0.2,0c0,0,0,0,0.1,0c0,0,0.1,0,0.1,0c0,0,0,0,0.1,0c0,0,0.1,0,0.1,0c0,0,0,0,0.1,0
		c0,0,0.1,0,0.1,0c0,0,0,0,0.1,0c0,0,0.1,0,0.1,0c0,0,0,0,0.1,0c0,0,0.1,0,0.1,0c0,0,0,0,0.1,0c0,0,0.1,0,0.1,0c0,0,0,0,0.1,0
		c0,0,0.1,0,0.1,0c0,0,0,0,0.1,0c0,0,0.1,0,0.1,0c0,0,0,0,0.1,0c0,0,0,0,0.1,0c0,0,0,0,0.1,0c0,0,0,0,0.1,0c0,0,0,0,0.1,0s0,0,0.1,0
		c0,0,0,0,0.1,0c0,0,0,0,0.1,0c0,0,0,0,0.1,0c0,0,0,0,0.1,0c0,0,0,0,0.1-0.1c0,0,0,0,0.1-0.1c0,0,0,0,0.1-0.1c0,0,0,0,0-0.1
		c0,0,0,0,0.1-0.1c0,0,0,0,0,0l13.1-16.4c0.9-1.1,0.7-2.7-0.4-3.6c-1.1-0.9-2.7-0.7-3.6,0.4L27.1,34.3l-6.7-5.1
		c-1.1-0.9-2.7-0.6-3.6,0.5C15.9,30.8,16.1,32.5,17.3,33.3z"/>
</g>
</svg>
