<?xml version="1.0" encoding="utf-8"?>
<!-- Generator: Adobe Illustrator 21.0.2, SVG Export Plug-In . SVG Version: 6.00 Build 0)  -->
<svg version="1.1" id="Layer_1" xmlns="http://www.w3.org/2000/svg" xmlns:xlink="http://www.w3.org/1999/xlink" x="0px" y="0px"
	 viewBox="0 0 1500 138" style="enable-background:new 0 0 1500 138;" xml:space="preserve">
<style type="text/css">
	.st0{fill:none;stroke:#CCCCCC;stroke-miterlimit:10;}
	.st1{fill:#CCCCCC;}
</style>
<line class="st0" x1="1378.5" y1="133.2" x2="1394" y2="124.9"/>
<line class="st0" x1="1439" y1="133.2" x2="1424" y2="124.9"/>
<line class="st0" x1="1378.9" y1="-6.5" x2="1348.8" y2="-24"/>
<path class="st0" d="M1379-6.5"/>
<line class="st0" x1="1349" y1="-6.5" x2="1349" y2="-24.1"/>
<g>
	<g>
		<g>
			<polyline class="st0" points="1258.8,97.8 1288.9,80.3 1288.9,45.5 1258.8,28 1228.6,45.5 1228.6,80.3 			"/>
			<g>
				<path class="st1" d="M1258.9,46.5l14.1,8.1v16.3l-14.1,8.1l-14.1-8.1V54.6L1258.9,46.5 M1258.9,45.3l-15.1,8.7v17.4l15.1,8.7
					l15.1-8.7V54L1258.9,45.3L1258.9,45.3z"/>
			</g>
			<polyline class="st0" points="1259,97.7 1259,62.6 1244,53.8 1228.5,45.5 			"/>
			<line class="st0" x1="1289" y1="45.5" x2="1259" y2="62.6"/>
			<line class="st0" x1="1259" y1="45.5" x2="1259" y2="27.9"/>
			<line class="st0" x1="1228.5" y1="80.2" x2="1244" y2="71.9"/>
			<line class="st0" x1="1289" y1="80.2" x2="1274" y2="71.9"/>
		</g>
		<polyline class="st0" points="1258.6,28.5 1258.6,63.3 1288.8,80.8 		"/>
		<path class="st0" d="M1288.8,11"/>
		<polyline class="st0" points="1288.8,80.8 1318.9,63.3 1318.9,28.5 1288.8,11 		"/>
		<g>
			<path class="st1" d="M1288.9,29.5l14.1,8.1v16.3l-14.1,8.1l-14.1-8.1V37.6L1288.9,29.5 M1288.9,28.3l-15.1,8.7v17.4l15.1,8.7
				l15.1-8.7V37L1288.9,28.3L1288.9,28.3z"/>
		</g>
		<polyline class="st0" points="1289,80.7 1289,45.6 1274,36.8 1258.5,28.5 		"/>
		<path class="st0" d="M1289,45.6"/>
		<path class="st0" d="M1319,28.5"/>
		<line class="st0" x1="1289" y1="28.5" x2="1289" y2="10.9"/>
		<line class="st0" x1="1258.5" y1="63.2" x2="1274" y2="54.9"/>
		<line class="st0" x1="1319" y1="63.2" x2="1304" y2="54.9"/>
		<g>
			<polyline class="st0" points="1198.8,63.8 1228.9,46.3 1228.9,11.5 1198.8,-6 1168.6,11.5 1168.6,46.3 			"/>
			<g>
				<path class="st1" d="M1198.9,12.5l14.1,8.1v16.3l-14.1,8.1l-14.1-8.1V20.6L1198.9,12.5 M1198.9,11.3l-15.1,8.7v17.4l15.1,8.7
					l15.1-8.7V20L1198.9,11.3L1198.9,11.3z"/>
			</g>
			<polyline class="st0" points="1199,63.7 1199,28.6 1184,19.8 1168.5,11.5 			"/>
			<line class="st0" x1="1229" y1="11.5" x2="1199" y2="28.6"/>
			<line class="st0" x1="1199" y1="11.5" x2="1199" y2="-6.1"/>
			<line class="st0" x1="1168.5" y1="46.2" x2="1184" y2="37.9"/>
			<line class="st0" x1="1229" y1="46.2" x2="1214" y2="37.9"/>
		</g>
		<g>
			<polyline class="st0" points="1198.8,133.8 1228.9,116.3 1228.9,81.5 1198.8,64 1168.6,81.5 1168.6,116.3 			"/>
			<g>
				<path class="st1" d="M1198.9,82.5l14.1,8.1v16.3l-14.1,8.1l-14.1-8.1V90.6L1198.9,82.5 M1198.9,81.3l-15.1,8.7v17.4l15.1,8.7
					l15.1-8.7V90L1198.9,81.3L1198.9,81.3z"/>
			</g>
			<polyline class="st0" points="1199,133.7 1199,98.6 1184,89.8 1168.5,81.5 			"/>
			<line class="st0" x1="1229" y1="81.5" x2="1199" y2="98.6"/>
			<line class="st0" x1="1199" y1="81.5" x2="1199" y2="63.9"/>
			<line class="st0" x1="1168.5" y1="116.2" x2="1184" y2="107.9"/>
			<line class="st0" x1="1229" y1="116.2" x2="1214" y2="107.9"/>
		</g>
	</g>
	<polyline class="st0" points="1348.8,46 1318.6,63.5 1318.6,98.3 1348.8,115.8 	"/>
	<polyline class="st0" points="1348.8,115.8 1378.9,98.3 1378.9,63.5 1348.8,46 	"/>
	<polyline class="st0" points="1364,89.5 1364,72 1348.9,63.3 1333.8,72 1333.8,89.5 1348.9,98.2 	"/>
	<path class="st0" d="M1318.5,63.5"/>
	<polyline class="st0" points="1349,115.7 1349,80.6 1334,71.8 	"/>
	<line class="st0" x1="1379" y1="63.5" x2="1349" y2="80.6"/>
	<line class="st0" x1="1349" y1="63.5" x2="1349" y2="45.9"/>
	<line class="st0" x1="1318.5" y1="98.2" x2="1334" y2="89.9"/>
	<line class="st0" x1="1379" y1="98.2" x2="1364" y2="89.9"/>
	<polyline class="st0" points="1408.8,81 1378.6,98.5 1378.6,133.3 	"/>
	<polyline class="st0" points="1438.9,133.3 1438.9,98.5 1408.8,81 	"/>
	<polyline class="st0" points="1408.9,133.2 1424,124.5 1424,107 	"/>
	<polyline class="st0" points="1408.9,98.3 1393.8,107 1393.8,124.5 1408.9,133.2 	"/>
	<polyline class="st0" points="1409,150.7 1409,115.6 1394,106.8 1378.5,98.5 	"/>
	<line class="st0" x1="1439" y1="98.5" x2="1409" y2="115.6"/>
	<line class="st0" x1="1409" y1="98.5" x2="1409" y2="80.9"/>
	<polyline class="st0" points="1409.8,11 1379.6,28.5 1379.6,63.3 1409.8,80.8 	"/>
	<path class="st0" d="M1409.8,11"/>
	<polyline class="st0" points="1409.8,80.8 1439.9,63.3 1439.9,28.5 	"/>
	<g>
		<path class="st1" d="M1409.9,29.5l14.1,8.1v16.3l-14.1,8.1l-14.1-8.1V37.6L1409.9,29.5 M1409.9,28.3l-15.1,8.7v17.4l15.1,8.7
			l15.1-8.7V37L1409.9,28.3L1409.9,28.3z"/>
	</g>
	<line class="st0" x1="1395" y1="36.8" x2="1379.5" y2="28.5"/>
	<line class="st0" x1="1410" y1="80.7" x2="1410" y2="45.6"/>
	<line class="st0" x1="1440" y1="28.5" x2="1410" y2="45.6"/>
	<line class="st0" x1="1410" y1="28.5" x2="1410" y2="10.9"/>
	<line class="st0" x1="1379.5" y1="63.2" x2="1395" y2="54.9"/>
	<line class="st0" x1="1440" y1="63.2" x2="1425" y2="54.9"/>
	<polyline class="st0" points="1469.8,46 1439.6,63.5 1439.6,98.3 1469.8,115.8 	"/>
	<path class="st0" d="M1469.8,46"/>
	<line class="st0" x1="1469.8" y1="115.8" x2="1499.9" y2="98.3"/>
	<g>
		<path class="st1" d="M1469.9,64.5l14.1,8.1v16.3l-14.1,8.1l-14.1-8.1V72.6L1469.9,64.5 M1469.9,63.3l-15.1,8.7v17.4l15.1,8.7
			l15.1-8.7V72L1469.9,63.3L1469.9,63.3z"/>
	</g>
	<polyline class="st0" points="1470,115.7 1470,80.6 1455,71.8 1439.5,63.5 	"/>
	<path class="st0" d="M1470,80.6"/>
	<line class="st0" x1="1470" y1="63.5" x2="1470" y2="45.9"/>
	<line class="st0" x1="1439.5" y1="98.2" x2="1455" y2="89.9"/>
	<line class="st0" x1="1500" y1="98.2" x2="1485" y2="89.9"/>
	<polyline class="st0" points="1318.6,-6.5 1318.6,28.3 1348.8,45.8 	"/>
	<line class="st0" x1="1348.8" y1="45.8" x2="1378.9" y2="28.3"/>
	<g>
		<path class="st1" d="M1348.9-5.5l14.1,8.1v16.3l-14.1,8.1l-14.1-8.1V2.6L1348.9-5.5 M1348.9-6.7L1333.8,2v17.4l15.1,8.7l15.1-8.7
			V2L1348.9-6.7L1348.9-6.7z"/>
	</g>
	<polyline class="st0" points="1349,45.7 1349,10.6 1334,1.8 1318.5,-6.5 	"/>
	<path class="st0" d="M1349,10.6"/>
	<line class="st0" x1="1318.5" y1="28.2" x2="1334" y2="19.9"/>
	<line class="st0" x1="1379" y1="28.2" x2="1364" y2="19.9"/>
	<g>
		<polyline class="st0" points="1138.8,98.8 1168.9,81.3 1168.9,46.5 1138.8,29 1108.6,46.5 1108.6,81.3 		"/>
		<g>
			<path class="st1" d="M1138.9,47.5l14.1,8.1v16.3l-14.1,8.1l-14.1-8.1V55.6L1138.9,47.5 M1138.9,46.3l-15.1,8.7v17.4l15.1,8.7
				l15.1-8.7V55L1138.9,46.3L1138.9,46.3z"/>
		</g>
		<polyline class="st0" points="1139,98.7 1139,63.6 1124,54.8 1108.5,46.5 		"/>
		<line class="st0" x1="1169" y1="46.5" x2="1139" y2="63.6"/>
		<line class="st0" x1="1139" y1="46.5" x2="1139" y2="28.9"/>
		<line class="st0" x1="1108.5" y1="81.2" x2="1124" y2="72.9"/>
		<line class="st0" x1="1169" y1="81.2" x2="1154" y2="72.9"/>
	</g>
</g>
<polyline class="st0" points="1107.9,81.5 1077.8,64 1047.6,81.5 1047.6,116.3 "/>
<line class="st0" x1="1077.8" y1="133.8" x2="1107.9" y2="116.3"/>
<g>
	<path class="st1" d="M1077.9,82.5l14.1,8.1v16.3l-14.1,8.1l-14.1-8.1V90.6L1077.9,82.5 M1077.9,81.3l-15.1,8.7v17.4l15.1,8.7
		l15.1-8.7V90L1077.9,81.3L1077.9,81.3z"/>
</g>
<polyline class="st0" points="1078,133.7 1078,98.6 1063,89.8 1047.5,81.5 "/>
<line class="st0" x1="1108" y1="81.5" x2="1078" y2="98.6"/>
<line class="st0" x1="1078" y1="81.5" x2="1078" y2="63.9"/>
<line class="st0" x1="1047.5" y1="116.2" x2="1063" y2="107.9"/>
<line class="st0" x1="1108" y1="116.2" x2="1093" y2="107.9"/>
<line class="st0" x1="987.6" y1="46.5" x2="987.6" y2="81.3"/>
<line class="st0" x1="1047.9" y1="46.5" x2="1017.8" y2="29"/>
<line class="st0" x1="1017.8" y1="98.8" x2="1047.9" y2="81.3"/>
<g>
	<path class="st1" d="M1017.9,47.5l14.1,8.1v16.3l-14.1,8.1l-14.1-8.1V55.6L1017.9,47.5 M1017.9,46.3l-15.1,8.7v17.4l15.1,8.7
		l15.1-8.7V55L1017.9,46.3L1017.9,46.3z"/>
</g>
<polyline class="st0" points="1018,98.7 1018,63.6 1003,54.8 987.5,46.5 "/>
<line class="st0" x1="1048" y1="46.5" x2="1018" y2="63.6"/>
<line class="st0" x1="1018" y1="46.5" x2="1018" y2="28.9"/>
<line class="st0" x1="987.5" y1="81.2" x2="1003" y2="72.9"/>
<line class="st0" x1="1048" y1="81.2" x2="1033" y2="72.9"/>
<line class="st0" x1="956.8" y1="133.8" x2="986.9" y2="116.3"/>
<g>
	<path class="st1" d="M956.9,82.5l14.1,8.1v16.3l-14.1,8.1l-14.1-8.1V90.6L956.9,82.5 M956.9,81.3L941.8,90v17.4l15.1,8.7l15.1-8.7
		V90L956.9,81.3L956.9,81.3z"/>
</g>
<polyline class="st0" points="957,133.7 957,98.6 942,89.8 926.5,81.5 "/>
<line class="st0" x1="987" y1="81.5" x2="957" y2="98.6"/>
<line class="st0" x1="957" y1="81.5" x2="957" y2="63.9"/>
<line class="st0" x1="926.5" y1="116.2" x2="942" y2="107.9"/>
<line class="st0" x1="987" y1="116.2" x2="972" y2="107.9"/>
<line class="st0" x1="956.8" y1="63.8" x2="986.9" y2="46.3"/>
<g>
	<path class="st1" d="M956.9,12.5l14.1,8.1v16.3L956.9,45l-14.1-8.1V20.6L956.9,12.5 M956.9,11.3L941.8,20v17.4l15.1,8.7l15.1-8.7
		V20L956.9,11.3L956.9,11.3z"/>
</g>
<polyline class="st0" points="957,63.7 957,28.6 942,19.8 926.5,11.5 "/>
<path class="st0" d="M957,28.6"/>
<path class="st0" d="M957-6.1"/>
<path class="st0" d="M957,11.5"/>
<line class="st0" x1="926.5" y1="46.2" x2="942" y2="37.9"/>
<line class="st0" x1="987" y1="46.2" x2="972" y2="37.9"/>
<line class="st0" x1="807.8" y1="150.5" x2="823.3" y2="142.2"/>
<line class="st0" x1="868.3" y1="150.5" x2="853.3" y2="142.2"/>
<line class="st0" x1="808.2" y1="10.8" x2="778.1" y2="-6.7"/>
<path class="st0" d="M808.3,10.8"/>
<line class="st0" x1="778.3" y1="10.8" x2="778.3" y2="-6.8"/>
<g>
	<g>
		<g>
			<polyline class="st0" points="688.1,115.1 718.2,97.6 718.2,62.8 688.1,45.3 657.8,62.8 657.8,97.6 			"/>
			<g>
				<path class="st1" d="M688.2,63.8l14.1,8.1v16.3l-14.1,8.1l-14.1-8.1V71.9L688.2,63.8 M688.2,62.6l-15.1,8.7v17.4l15.1,8.7
					l15.1-8.7V71.3L688.2,62.6L688.2,62.6z"/>
			</g>
			<polyline class="st0" points="688.3,115 688.3,79.9 673.3,71.1 657.8,62.8 			"/>
			<line class="st0" x1="718.3" y1="62.8" x2="688.3" y2="79.9"/>
			<line class="st0" x1="688.3" y1="62.8" x2="688.3" y2="45.2"/>
			<line class="st0" x1="657.8" y1="97.5" x2="673.3" y2="89.2"/>
			<line class="st0" x1="718.3" y1="97.5" x2="703.3" y2="89.2"/>
		</g>
		<polyline class="st0" points="687.8,45.8 687.8,80.6 718.1,98.1 		"/>
		<path class="st0" d="M718.1,28.3"/>
		<polyline class="st0" points="718.1,98.1 748.2,80.6 748.2,45.8 718.1,28.3 		"/>
		<g>
			<path class="st1" d="M718.2,46.8l14.1,8.1v16.3l-14.1,8.1l-14.1-8.1V54.9L718.2,46.8 M718.2,45.6l-15.1,8.7v17.4l15.1,8.7
				l15.1-8.7V54.3L718.2,45.6L718.2,45.6z"/>
		</g>
		<polyline class="st0" points="718.3,98 718.3,62.9 703.3,54.1 687.8,45.8 		"/>
		<path class="st0" d="M718.3,62.9"/>
		<path class="st0" d="M748.3,45.8"/>
		<line class="st0" x1="718.3" y1="45.8" x2="718.3" y2="28.2"/>
		<line class="st0" x1="687.8" y1="80.5" x2="703.3" y2="72.2"/>
		<line class="st0" x1="748.3" y1="80.5" x2="733.3" y2="72.2"/>
		<g>
			<polyline class="st0" points="628.1,81.1 658.2,63.6 658.2,28.8 628.1,11.3 597.8,28.8 597.8,63.6 			"/>
			<g>
				<path class="st1" d="M628.2,29.8l14.1,8.1v16.3l-14.1,8.1l-14.1-8.1V37.9L628.2,29.8 M628.2,28.6l-15.1,8.7v17.4l15.1,8.7
					l15.1-8.7V37.3L628.2,28.6L628.2,28.6z"/>
			</g>
			<polyline class="st0" points="628.3,81 628.3,45.9 613.3,37.1 597.8,28.8 			"/>
			<line class="st0" x1="658.3" y1="28.8" x2="628.3" y2="45.9"/>
			<line class="st0" x1="628.3" y1="28.8" x2="628.3" y2="11.2"/>
			<line class="st0" x1="597.8" y1="63.5" x2="613.3" y2="55.2"/>
			<line class="st0" x1="658.3" y1="63.5" x2="643.3" y2="55.2"/>
		</g>
		<g>
			<polyline class="st0" points="628.1,151.1 658.2,133.6 658.2,98.8 628.1,81.3 597.8,98.8 597.8,133.6 			"/>
			<g>
				<path class="st1" d="M628.2,99.8l14.1,8.1v16.3l-14.1,8.1l-14.1-8.1v-16.3L628.2,99.8 M628.2,98.6l-15.1,8.7v17.4l15.1,8.7
					l15.1-8.7v-17.4L628.2,98.6L628.2,98.6z"/>
			</g>
			<polyline class="st0" points="628.3,151 628.3,115.9 613.3,107.1 597.8,98.8 			"/>
			<line class="st0" x1="658.3" y1="98.8" x2="628.3" y2="115.9"/>
			<line class="st0" x1="628.3" y1="98.8" x2="628.3" y2="81.2"/>
			<line class="st0" x1="597.8" y1="133.5" x2="613.3" y2="125.2"/>
			<line class="st0" x1="658.3" y1="133.5" x2="643.3" y2="125.2"/>
		</g>
	</g>
	<polyline class="st0" points="778.1,63.3 747.8,80.8 747.8,115.6 778.1,133.1 	"/>
	<polyline class="st0" points="778.1,133.1 808.2,115.6 808.2,80.8 778.1,63.3 	"/>
	<polyline class="st0" points="793.3,106.8 793.3,89.3 778.2,80.6 763.1,89.3 763.1,106.8 778.2,115.5 	"/>
	<path class="st0" d="M747.8,80.8"/>
	<polyline class="st0" points="778.3,133 778.3,97.9 763.3,89.1 	"/>
	<line class="st0" x1="808.3" y1="80.8" x2="778.3" y2="97.9"/>
	<line class="st0" x1="778.3" y1="80.8" x2="778.3" y2="63.2"/>
	<line class="st0" x1="747.8" y1="115.5" x2="763.3" y2="107.2"/>
	<line class="st0" x1="808.3" y1="115.5" x2="793.3" y2="107.2"/>
	<polyline class="st0" points="838.1,98.3 807.8,115.8 807.8,150.6 	"/>
	<polyline class="st0" points="868.2,150.6 868.2,115.8 838.1,98.3 	"/>
	<polyline class="st0" points="838.2,150.5 853.3,141.8 853.3,124.3 	"/>
	<polyline class="st0" points="838.2,115.6 823.1,124.3 823.1,141.8 838.2,150.5 	"/>
	<polyline class="st0" points="838.3,168 838.3,132.9 823.3,124.1 807.8,115.8 	"/>
	<line class="st0" x1="868.3" y1="115.8" x2="838.3" y2="132.9"/>
	<line class="st0" x1="838.3" y1="115.8" x2="838.3" y2="98.2"/>
	<polyline class="st0" points="839.1,28.3 808.8,45.8 808.8,80.6 839.1,98.1 	"/>
	<path class="st0" d="M839.1,28.3"/>
	<polyline class="st0" points="839.1,98.1 869.2,80.6 869.2,45.8 	"/>
	<g>
		<path class="st1" d="M839.2,46.8l14.1,8.1v16.3l-14.1,8.1l-14.1-8.1V54.9L839.2,46.8 M839.2,45.6l-15.1,8.7v17.4l15.1,8.7
			l15.1-8.7V54.3L839.2,45.6L839.2,45.6z"/>
	</g>
	<line class="st0" x1="824.3" y1="54.1" x2="808.8" y2="45.8"/>
	<line class="st0" x1="839.3" y1="98" x2="839.3" y2="62.9"/>
	<line class="st0" x1="869.3" y1="45.8" x2="839.3" y2="62.9"/>
	<line class="st0" x1="839.3" y1="45.8" x2="839.3" y2="28.2"/>
	<line class="st0" x1="808.8" y1="80.5" x2="824.3" y2="72.2"/>
	<line class="st0" x1="869.3" y1="80.5" x2="854.3" y2="72.2"/>
	<polyline class="st0" points="899.1,63.3 868.8,80.8 868.8,115.6 899.1,133.1 	"/>
	<path class="st0" d="M899.1,63.3"/>
	<line class="st0" x1="899.1" y1="133.1" x2="929.2" y2="115.6"/>
	<g>
		<path class="st1" d="M899.2,81.8l14.1,8.1v16.3l-14.1,8.1l-14.1-8.1V89.9L899.2,81.8 M899.2,80.6l-15.1,8.7v17.4l15.1,8.7
			l15.1-8.7V89.3L899.2,80.6L899.2,80.6z"/>
	</g>
	<polyline class="st0" points="899.3,133 899.3,97.9 884.3,89.1 868.8,80.8 	"/>
	<path class="st0" d="M899.3,97.9"/>
	<line class="st0" x1="899.3" y1="80.8" x2="899.3" y2="63.2"/>
	<line class="st0" x1="868.8" y1="115.5" x2="884.3" y2="107.2"/>
	<line class="st0" x1="929.3" y1="115.5" x2="914.3" y2="107.2"/>
	<polyline class="st0" points="747.8,10.8 747.8,45.6 778.1,63.1 	"/>
	<line class="st0" x1="778.1" y1="63.1" x2="808.2" y2="45.6"/>
	<g>
		<path class="st1" d="M778.2,11.8l14.1,8.1v16.3l-14.1,8.1l-14.1-8.1V19.9L778.2,11.8 M778.2,10.6l-15.1,8.7v17.4l15.1,8.7
			l15.1-8.7V19.3L778.2,10.6L778.2,10.6z"/>
	</g>
	<polyline class="st0" points="778.3,63 778.3,27.9 763.3,19.1 747.8,10.8 	"/>
	<path class="st0" d="M778.3,27.9"/>
	<line class="st0" x1="747.8" y1="45.5" x2="763.3" y2="37.2"/>
	<line class="st0" x1="808.3" y1="45.5" x2="793.3" y2="37.2"/>
	<g>
		<polyline class="st0" points="568.1,116.1 598.2,98.6 598.2,63.8 568.1,46.3 537.8,63.8 537.8,98.6 		"/>
		<g>
			<path class="st1" d="M568.2,64.8l14.1,8.1v16.3l-14.1,8.1l-14.1-8.1V72.9L568.2,64.8 M568.2,63.6l-15.1,8.7v17.4l15.1,8.7
				l15.1-8.7V72.3L568.2,63.6L568.2,63.6z"/>
		</g>
		<polyline class="st0" points="568.3,116 568.3,80.9 553.3,72.1 537.8,63.8 		"/>
		<line class="st0" x1="598.3" y1="63.8" x2="568.3" y2="80.9"/>
		<line class="st0" x1="568.3" y1="63.8" x2="568.3" y2="46.2"/>
		<line class="st0" x1="537.8" y1="98.5" x2="553.3" y2="90.2"/>
		<line class="st0" x1="598.3" y1="98.5" x2="583.3" y2="90.2"/>
	</g>
</g>
<polyline class="st0" points="537.2,98.8 507.1,81.3 476.8,98.8 476.8,133.6 "/>
<line class="st0" x1="507.1" y1="151.1" x2="537.2" y2="133.6"/>
<g>
	<path class="st1" d="M507.2,99.8l14.1,8.1v16.3l-14.1,8.1l-14.1-8.1v-16.3L507.2,99.8 M507.2,98.6l-15.1,8.7v17.4l15.1,8.7
		l15.1-8.7v-17.4L507.2,98.6L507.2,98.6z"/>
</g>
<polyline class="st0" points="507.3,151 507.3,115.9 492.3,107.1 476.8,98.8 "/>
<line class="st0" x1="537.3" y1="98.8" x2="507.3" y2="115.9"/>
<line class="st0" x1="507.3" y1="98.8" x2="507.3" y2="81.2"/>
<line class="st0" x1="476.8" y1="133.5" x2="492.3" y2="125.2"/>
<line class="st0" x1="537.3" y1="133.5" x2="522.3" y2="125.2"/>
<line class="st0" x1="416.8" y1="63.8" x2="416.8" y2="98.6"/>
<line class="st0" x1="477.2" y1="63.8" x2="447" y2="46.3"/>
<line class="st0" x1="447" y1="116.1" x2="477.2" y2="98.6"/>
<g>
	<path class="st1" d="M447.2,64.8l14.1,8.1v16.3l-14.1,8.1l-14.1-8.1V72.9L447.2,64.8 M447.2,63.6l-15.1,8.7v17.4l15.1,8.7l15.1-8.7
		V72.3L447.2,63.6L447.2,63.6z"/>
</g>
<polyline class="st0" points="447.3,116 447.3,80.9 432.3,72.1 416.8,63.8 "/>
<line class="st0" x1="477.3" y1="63.8" x2="447.3" y2="80.9"/>
<line class="st0" x1="447.3" y1="63.8" x2="447.3" y2="46.2"/>
<line class="st0" x1="416.8" y1="98.5" x2="432.3" y2="90.2"/>
<line class="st0" x1="477.3" y1="98.5" x2="462.3" y2="90.2"/>
<line class="st0" x1="386" y1="151.1" x2="416.2" y2="133.6"/>
<g>
	<path class="st1" d="M386.2,99.8l14.1,8.1v16.3l-14.1,8.1l-14.1-8.1v-16.3L386.2,99.8 M386.2,98.6l-15.1,8.7v17.4l15.1,8.7
		l15.1-8.7v-17.4L386.2,98.6L386.2,98.6z"/>
</g>
<polyline class="st0" points="386.3,151 386.3,115.9 371.3,107.1 355.8,98.8 "/>
<line class="st0" x1="416.3" y1="98.8" x2="386.3" y2="115.9"/>
<line class="st0" x1="386.3" y1="98.8" x2="386.3" y2="81.2"/>
<line class="st0" x1="355.8" y1="133.5" x2="371.3" y2="125.2"/>
<line class="st0" x1="416.3" y1="133.5" x2="401.3" y2="125.2"/>
<line class="st0" x1="386" y1="81.1" x2="416.2" y2="63.6"/>
<g>
	<path class="st1" d="M386.2,29.8l14.1,8.1v16.3l-14.1,8.1l-14.1-8.1V37.9L386.2,29.8 M386.2,28.6L371,37.3v17.4l15.1,8.7l15.1-8.7
		V37.3L386.2,28.6L386.2,28.6z"/>
</g>
<polyline class="st0" points="386.3,81 386.3,45.9 371.3,37.1 355.8,28.8 "/>
<path class="st0" d="M386.3,45.9"/>
<path class="st0" d="M386.3,11.2"/>
<path class="st0" d="M386.3,28.8"/>
<line class="st0" x1="355.8" y1="63.5" x2="371.3" y2="55.2"/>
<line class="st0" x1="416.3" y1="63.5" x2="401.3" y2="55.2"/>
<line class="st0" x1="234" y1="133.5" x2="249.5" y2="125.2"/>
<line class="st0" x1="294.5" y1="133.5" x2="279.5" y2="125.2"/>
<line class="st0" x1="234.4" y1="-6.2" x2="204.3" y2="-23.7"/>
<path class="st0" d="M234.5-6.2"/>
<line class="st0" x1="204.5" y1="-6.2" x2="204.5" y2="-23.8"/>
<g>
	<g>
		<g>
			<polyline class="st0" points="114.3,98.1 144.4,80.6 144.4,45.8 114.3,28.3 84.1,45.8 84.1,80.6 			"/>
			<g>
				<path class="st1" d="M114.4,46.8l14.1,8.1v16.3l-14.1,8.1l-14.1-8.1V54.9L114.4,46.8 M114.4,45.6l-15.1,8.7v17.4l15.1,8.7
					l15.1-8.7V54.3L114.4,45.6L114.4,45.6z"/>
			</g>
			<polyline class="st0" points="114.5,98 114.5,62.9 99.5,54.1 84,45.8 			"/>
			<line class="st0" x1="144.5" y1="45.8" x2="114.5" y2="62.9"/>
			<line class="st0" x1="114.5" y1="45.8" x2="114.5" y2="28.2"/>
			<line class="st0" x1="84" y1="80.5" x2="99.5" y2="72.2"/>
			<line class="st0" x1="144.5" y1="80.5" x2="129.5" y2="72.2"/>
		</g>
		<polyline class="st0" points="114.1,28.8 114.1,63.6 144.3,81.1 		"/>
		<path class="st0" d="M144.3,11.3"/>
		<polyline class="st0" points="144.3,81.1 174.4,63.6 174.4,28.8 144.3,11.3 		"/>
		<g>
			<path class="st1" d="M144.4,29.8l14.1,8.1v16.3l-14.1,8.1l-14.1-8.1V37.9L144.4,29.8 M144.4,28.6l-15.1,8.7v17.4l15.1,8.7
				l15.1-8.7V37.3L144.4,28.6L144.4,28.6z"/>
		</g>
		<polyline class="st0" points="144.5,81 144.5,45.9 129.5,37.1 114,28.8 		"/>
		<path class="st0" d="M144.5,45.9"/>
		<path class="st0" d="M174.5,28.8"/>
		<line class="st0" x1="144.5" y1="28.8" x2="144.5" y2="11.2"/>
		<line class="st0" x1="114" y1="63.5" x2="129.5" y2="55.2"/>
		<line class="st0" x1="174.5" y1="63.5" x2="159.5" y2="55.2"/>
		<g>
			<polyline class="st0" points="54.3,64.1 84.4,46.6 84.4,11.8 54.3,-5.7 24.1,11.8 24.1,46.6 			"/>
			<g>
				<path class="st1" d="M54.4,12.8l14.1,8.1v16.3l-14.1,8.1l-14.1-8.1V20.9L54.4,12.8 M54.4,11.6l-15.1,8.7v17.4l15.1,8.7l15.1-8.7
					V20.3L54.4,11.6L54.4,11.6z"/>
			</g>
			<polyline class="st0" points="54.5,64 54.5,28.9 39.5,20.1 24,11.8 			"/>
			<line class="st0" x1="84.5" y1="11.8" x2="54.5" y2="28.9"/>
			<line class="st0" x1="54.5" y1="11.8" x2="54.5" y2="-5.8"/>
			<line class="st0" x1="24" y1="46.5" x2="39.5" y2="38.2"/>
			<line class="st0" x1="84.5" y1="46.5" x2="69.5" y2="38.2"/>
		</g>
		<g>
			<polyline class="st0" points="54.3,134.1 84.4,116.6 84.4,81.8 54.3,64.3 24.1,81.8 24.1,116.6 			"/>
			<g>
				<path class="st1" d="M54.4,82.8l14.1,8.1v16.3l-14.1,8.1l-14.1-8.1V90.9L54.4,82.8 M54.4,81.6l-15.1,8.7v17.4l15.1,8.7l15.1-8.7
					V90.3L54.4,81.6L54.4,81.6z"/>
			</g>
			<polyline class="st0" points="54.5,134 54.5,98.9 39.5,90.1 24,81.8 			"/>
			<line class="st0" x1="84.5" y1="81.8" x2="54.5" y2="98.9"/>
			<line class="st0" x1="54.5" y1="81.8" x2="54.5" y2="64.2"/>
			<line class="st0" x1="24" y1="116.5" x2="39.5" y2="108.2"/>
			<line class="st0" x1="84.5" y1="116.5" x2="69.5" y2="108.2"/>
		</g>
	</g>
	<polyline class="st0" points="204.3,46.3 174.1,63.8 174.1,98.6 204.3,116.1 	"/>
	<polyline class="st0" points="204.3,116.1 234.4,98.6 234.4,63.8 204.3,46.3 	"/>
	<polyline class="st0" points="219.5,89.8 219.5,72.3 204.4,63.6 189.3,72.3 189.3,89.8 204.4,98.5 	"/>
	<path class="st0" d="M174,63.8"/>
	<polyline class="st0" points="204.5,116 204.5,80.9 189.5,72.1 	"/>
	<line class="st0" x1="234.5" y1="63.8" x2="204.5" y2="80.9"/>
	<line class="st0" x1="204.5" y1="63.8" x2="204.5" y2="46.2"/>
	<line class="st0" x1="174" y1="98.5" x2="189.5" y2="90.2"/>
	<line class="st0" x1="234.5" y1="98.5" x2="219.5" y2="90.2"/>
	<polyline class="st0" points="264.3,81.3 234.1,98.8 234.1,133.6 	"/>
	<polyline class="st0" points="294.4,133.6 294.4,98.8 264.3,81.3 	"/>
	<polyline class="st0" points="264.4,133.5 279.5,124.8 279.5,107.3 	"/>
	<polyline class="st0" points="264.4,98.6 249.3,107.3 249.3,124.8 264.4,133.5 	"/>
	<polyline class="st0" points="264.5,151 264.5,115.9 249.5,107.1 234,98.8 	"/>
	<line class="st0" x1="294.5" y1="98.8" x2="264.5" y2="115.9"/>
	<line class="st0" x1="264.5" y1="98.8" x2="264.5" y2="81.2"/>
	<polyline class="st0" points="265.3,11.3 235.1,28.8 235.1,63.6 265.3,81.1 	"/>
	<path class="st0" d="M265.3,11.3"/>
	<polyline class="st0" points="265.3,81.1 295.4,63.6 295.4,28.8 	"/>
	<g>
		<path class="st1" d="M265.4,29.8l14.1,8.1v16.3l-14.1,8.1l-14.1-8.1V37.9L265.4,29.8 M265.4,28.6l-15.1,8.7v17.4l15.1,8.7
			l15.1-8.7V37.3L265.4,28.6L265.4,28.6z"/>
	</g>
	<line class="st0" x1="250.5" y1="37.1" x2="235" y2="28.8"/>
	<line class="st0" x1="265.5" y1="81" x2="265.5" y2="45.9"/>
	<line class="st0" x1="295.5" y1="28.8" x2="265.5" y2="45.9"/>
	<line class="st0" x1="265.5" y1="28.8" x2="265.5" y2="11.2"/>
	<line class="st0" x1="235" y1="63.5" x2="250.5" y2="55.2"/>
	<line class="st0" x1="295.5" y1="63.5" x2="280.5" y2="55.2"/>
	<polyline class="st0" points="325.3,46.3 295.1,63.8 295.1,98.6 325.3,116.1 	"/>
	<path class="st0" d="M325.3,46.3"/>
	<line class="st0" x1="325.3" y1="116.1" x2="355.4" y2="98.6"/>
	<g>
		<path class="st1" d="M325.4,64.8l14.1,8.1v16.3l-14.1,8.1l-14.1-8.1V72.9L325.4,64.8 M325.4,63.6l-15.1,8.7v17.4l15.1,8.7
			l15.1-8.7V72.3L325.4,63.6L325.4,63.6z"/>
	</g>
	<polyline class="st0" points="325.5,116 325.5,80.9 310.5,72.1 295,63.8 	"/>
	<path class="st0" d="M325.5,80.9"/>
	<line class="st0" x1="325.5" y1="63.8" x2="325.5" y2="46.2"/>
	<line class="st0" x1="295" y1="98.5" x2="310.5" y2="90.2"/>
	<line class="st0" x1="355.5" y1="98.5" x2="340.5" y2="90.2"/>
	<polyline class="st0" points="174.1,-6.2 174.1,28.6 204.3,46.1 	"/>
	<line class="st0" x1="204.3" y1="46.1" x2="234.4" y2="28.6"/>
	<g>
		<path class="st1" d="M204.4-5.2l14.1,8.1v16.3l-14.1,8.1l-14.1-8.1V2.9L204.4-5.2 M204.4-6.4l-15.1,8.7v17.4l15.1,8.7l15.1-8.7
			V2.3L204.4-6.4L204.4-6.4z"/>
	</g>
	<polyline class="st0" points="204.5,46 204.5,10.9 189.5,2.1 174,-6.2 	"/>
	<path class="st0" d="M204.5,10.9"/>
	<line class="st0" x1="174" y1="28.5" x2="189.5" y2="20.2"/>
	<line class="st0" x1="234.5" y1="28.5" x2="219.5" y2="20.2"/>
	<g>
		<polyline class="st0" points="-5.7,99.1 24.4,81.6 24.4,46.8 -5.7,29.3 -35.9,46.8 -35.9,81.6 		"/>
		<g>
			<path class="st1" d="M-5.6,47.8l14.1,8.1v16.3l-14.1,8.1l-14.1-8.1V55.9L-5.6,47.8 M-5.6,46.6l-15.1,8.7v17.4l15.1,8.7l15.1-8.7
				V55.3L-5.6,46.6L-5.6,46.6z"/>
		</g>
		<polyline class="st0" points="-5.5,99 -5.5,63.9 -20.5,55.1 -36,46.8 		"/>
		<line class="st0" x1="24.5" y1="46.8" x2="-5.5" y2="63.9"/>
		<line class="st0" x1="-5.5" y1="46.8" x2="-5.5" y2="29.2"/>
		<line class="st0" x1="-36" y1="81.5" x2="-20.5" y2="73.2"/>
		<line class="st0" x1="24.5" y1="81.5" x2="9.5" y2="73.2"/>
	</g>
</g>
<polyline class="st0" points="-36.6,81.8 -66.7,64.3 -96.9,81.8 -96.9,116.6 "/>
<line class="st0" x1="-66.7" y1="134.1" x2="-36.6" y2="116.6"/>
<g>
	<path class="st1" d="M-66.6,82.8l14.1,8.1v16.3l-14.1,8.1l-14.1-8.1V90.9L-66.6,82.8 M-66.6,81.6l-15.1,8.7v17.4l15.1,8.7l15.1-8.7
		V90.3L-66.6,81.6L-66.6,81.6z"/>
</g>
<polyline class="st0" points="-66.5,134 -66.5,98.9 -81.5,90.1 -97,81.8 "/>
<line class="st0" x1="-36.5" y1="81.8" x2="-66.5" y2="98.9"/>
<line class="st0" x1="-66.5" y1="81.8" x2="-66.5" y2="64.2"/>
<line class="st0" x1="-97" y1="116.5" x2="-81.5" y2="108.2"/>
<line class="st0" x1="-36.5" y1="116.5" x2="-51.5" y2="108.2"/>
<line class="st0" x1="-156.9" y1="46.8" x2="-156.9" y2="81.6"/>
<line class="st0" x1="-96.6" y1="46.8" x2="-126.7" y2="29.3"/>
<line class="st0" x1="-126.7" y1="99.1" x2="-96.6" y2="81.6"/>
<g>
	<path class="st1" d="M-126.6,47.8l14.1,8.1v16.3l-14.1,8.1l-14.1-8.1V55.9L-126.6,47.8 M-126.6,46.6l-15.1,8.7v17.4l15.1,8.7
		l15.1-8.7V55.3L-126.6,46.6L-126.6,46.6z"/>
</g>
<polyline class="st0" points="-126.5,99 -126.5,63.9 -141.5,55.1 -157,46.8 "/>
<line class="st0" x1="-96.5" y1="46.8" x2="-126.5" y2="63.9"/>
<line class="st0" x1="-126.5" y1="46.8" x2="-126.5" y2="29.2"/>
<line class="st0" x1="-157" y1="81.5" x2="-141.5" y2="73.2"/>
<line class="st0" x1="-96.5" y1="81.5" x2="-111.5" y2="73.2"/>
<line class="st0" x1="-187.7" y1="134.1" x2="-157.6" y2="116.6"/>
<g>
	<path class="st1" d="M-187.6,82.8l14.1,8.1v16.3l-14.1,8.1l-14.1-8.1V90.9L-187.6,82.8 M-187.6,81.6l-15.1,8.7v17.4l15.1,8.7
		l15.1-8.7V90.3L-187.6,81.6L-187.6,81.6z"/>
</g>
<polyline class="st0" points="-187.5,134 -187.5,98.9 -202.5,90.1 -218,81.8 "/>
<line class="st0" x1="-157.5" y1="81.8" x2="-187.5" y2="98.9"/>
<line class="st0" x1="-187.5" y1="81.8" x2="-187.5" y2="64.2"/>
<line class="st0" x1="-218" y1="116.5" x2="-202.5" y2="108.2"/>
<line class="st0" x1="-157.5" y1="116.5" x2="-172.5" y2="108.2"/>
<line class="st0" x1="-187.7" y1="64.1" x2="-157.6" y2="46.6"/>
<g>
	<path class="st1" d="M-187.6,12.8l14.1,8.1v16.3l-14.1,8.1l-14.1-8.1V20.9L-187.6,12.8 M-187.6,11.6l-15.1,8.7v17.4l15.1,8.7
		l15.1-8.7V20.3L-187.6,11.6L-187.6,11.6z"/>
</g>
<polyline class="st0" points="-187.5,64 -187.5,28.9 -202.5,20.1 -218,11.8 "/>
<path class="st0" d="M-187.5,28.9"/>
<path class="st0" d="M-187.5-5.8"/>
<path class="st0" d="M-187.5,11.8"/>
<line class="st0" x1="-218" y1="46.5" x2="-202.5" y2="38.2"/>
<line class="st0" x1="-157.5" y1="46.5" x2="-172.5" y2="38.2"/>
</svg>
