<?xml version="1.0" encoding="utf-8"?>
<!-- Generator: Adobe Illustrator 21.0.2, SVG Export Plug-In . SVG Version: 6.00 Build 0)  -->
<svg version="1.0" id="Layer_1" xmlns="http://www.w3.org/2000/svg" xmlns:xlink="http://www.w3.org/1999/xlink" x="0px" y="0px"
	 viewBox="0 0 60 60" style="enable-background:new 0 0 60 60;" xml:space="preserve">
<style type="text/css">
	.st0{fill:#FFFFFF;}
	.st1{fill:none;stroke:#FFFFFF;stroke-width:2;stroke-miterlimit:10;}
</style>
<g>
	<g>
		<path class="st0" d="M30,45.5c-8.5,0-15.5-7-15.5-15.5s7-15.5,15.5-15.5s15.5,7,15.5,15.5S38.5,45.5,30,45.5z M30,15.1
			c-8.2,0-14.9,6.7-14.9,14.9S21.8,44.9,30,44.9S44.9,38.2,44.9,30S38.2,15.1,30,15.1z"/>
		<path class="st0" d="M30,14c-8.8,0-16,7.2-16,16s7.2,16,16,16s16-7.2,16-16S38.8,14,30,14L30,14z M30,44.4
			c-8,0-14.4-6.4-14.4-14.4c0-8,6.4-14.4,14.4-14.4S44.4,22,44.4,30C44.4,38,38,44.4,30,44.4L30,44.4z"/>
	</g>
	<g>
		<line class="st1" x1="30" y1="25" x2="30" y2="35"/>
	</g>
	<g>
		<line class="st1" x1="25" y1="30" x2="35" y2="30"/>
	</g>
	<g>
		<line class="st1" x1="18" y1="30" x2="42" y2="30"/>
	</g>
	<g>
		<line class="st1" x1="30" y1="18" x2="30" y2="42"/>
	</g>
</g>
</svg>
