<?xml version="1.0" encoding="utf-8"?>
<!-- Generator: Adobe Illustrator 21.0.2, SVG Export Plug-In . SVG Version: 6.00 Build 0)  -->
<svg version="1.1" id="Layer_1" xmlns="http://www.w3.org/2000/svg" xmlns:xlink="http://www.w3.org/1999/xlink" x="0px" y="0px"
	 viewBox="0 0 1500 138" style="enable-background:new 0 0 1500 138;" xml:space="preserve">
<style type="text/css">
	.st0{opacity:0.5;fill:none;stroke:#CCCCCC;stroke-miterlimit:10;}
	.st1{opacity:0.5;}
	.st2{fill:none;stroke:#CCCCCC;stroke-miterlimit:10;}
	.st3{fill:#CCCCCC;}
	.st4{opacity:0.56;fill:none;stroke:#CCCCCC;stroke-miterlimit:10;}
</style>
<line class="st0" x1="1378.5" y1="133.2" x2="1394" y2="124.9"/>
<line class="st0" x1="1439" y1="133.2" x2="1424" y2="124.9"/>
<line class="st0" x1="1378.9" y1="-6.5" x2="1348.8" y2="-24"/>
<path class="st0" d="M1379-6.5"/>
<line class="st0" x1="1349" y1="-6.5" x2="1349" y2="-24.1"/>
<g class="st1">
	<g>
		<g>
			<polyline class="st2" points="1258.8,97.8 1288.9,80.3 1288.9,45.5 1258.8,28 1228.6,45.5 1228.6,80.3 			"/>
			<g>
				<path class="st3" d="M1258.9,46.5l14.1,8.1v16.3l-14.1,8.1l-14.1-8.1V54.6L1258.9,46.5 M1258.9,45.3l-15.1,8.7v17.4l15.1,8.7
					l15.1-8.7V54L1258.9,45.3L1258.9,45.3z"/>
			</g>
			<polyline class="st2" points="1259,97.7 1259,62.6 1244,53.8 1228.5,45.5 			"/>
			<line class="st2" x1="1289" y1="45.5" x2="1259" y2="62.6"/>
			<line class="st2" x1="1259" y1="45.5" x2="1259" y2="27.9"/>
			<line class="st2" x1="1228.5" y1="80.2" x2="1244" y2="71.9"/>
			<line class="st2" x1="1289" y1="80.2" x2="1274" y2="71.9"/>
		</g>
		<polyline class="st2" points="1258.6,28.5 1258.6,63.3 1288.8,80.8 		"/>
		<path class="st2" d="M1288.8,11"/>
		<polyline class="st2" points="1288.8,80.8 1318.9,63.3 1318.9,28.5 1288.8,11 		"/>
		<g>
			<path class="st3" d="M1288.9,29.5l14.1,8.1v16.3l-14.1,8.1l-14.1-8.1V37.6L1288.9,29.5 M1288.9,28.3l-15.1,8.7v17.4l15.1,8.7
				l15.1-8.7V37L1288.9,28.3L1288.9,28.3z"/>
		</g>
		<polyline class="st2" points="1289,80.7 1289,45.6 1274,36.8 1258.5,28.5 		"/>
		<path class="st2" d="M1289,45.6"/>
		<path class="st2" d="M1319,28.5"/>
		<line class="st2" x1="1289" y1="28.5" x2="1289" y2="10.9"/>
		<line class="st2" x1="1258.5" y1="63.2" x2="1274" y2="54.9"/>
		<line class="st2" x1="1319" y1="63.2" x2="1304" y2="54.9"/>
		<g>
			<polyline class="st2" points="1198.8,63.8 1228.9,46.3 1228.9,11.5 1198.8,-6 1168.6,11.5 1168.6,46.3 			"/>
			<g>
				<path class="st3" d="M1198.9,12.5l14.1,8.1v16.3l-14.1,8.1l-14.1-8.1V20.6L1198.9,12.5 M1198.9,11.3l-15.1,8.7v17.4l15.1,8.7
					l15.1-8.7V20L1198.9,11.3L1198.9,11.3z"/>
			</g>
			<polyline class="st2" points="1199,63.7 1199,28.6 1184,19.8 1168.5,11.5 			"/>
			<line class="st2" x1="1229" y1="11.5" x2="1199" y2="28.6"/>
			<line class="st2" x1="1199" y1="11.5" x2="1199" y2="-6.1"/>
			<line class="st2" x1="1168.5" y1="46.2" x2="1184" y2="37.9"/>
			<line class="st2" x1="1229" y1="46.2" x2="1214" y2="37.9"/>
		</g>
		<g>
			<polyline class="st2" points="1198.8,133.8 1228.9,116.3 1228.9,81.5 1198.8,64 1168.6,81.5 1168.6,116.3 			"/>
			<g>
				<path class="st3" d="M1198.9,82.5l14.1,8.1v16.3l-14.1,8.1l-14.1-8.1V90.6L1198.9,82.5 M1198.9,81.3l-15.1,8.7v17.4l15.1,8.7
					l15.1-8.7V90L1198.9,81.3L1198.9,81.3z"/>
			</g>
			<polyline class="st2" points="1199,133.7 1199,98.6 1184,89.8 1168.5,81.5 			"/>
			<line class="st2" x1="1229" y1="81.5" x2="1199" y2="98.6"/>
			<line class="st2" x1="1199" y1="81.5" x2="1199" y2="63.9"/>
			<line class="st2" x1="1168.5" y1="116.2" x2="1184" y2="107.9"/>
			<line class="st2" x1="1229" y1="116.2" x2="1214" y2="107.9"/>
		</g>
	</g>
	<polyline class="st2" points="1348.8,46 1318.6,63.5 1318.6,98.3 1348.8,115.8 	"/>
	<polyline class="st2" points="1348.8,115.8 1378.9,98.3 1378.9,63.5 1348.8,46 	"/>
	<polyline class="st2" points="1364,89.5 1364,72 1348.9,63.3 1333.8,72 1333.8,89.5 1348.9,98.2 	"/>
	<path class="st2" d="M1318.5,63.5"/>
	<polyline class="st2" points="1349,115.7 1349,80.6 1334,71.8 	"/>
	<line class="st2" x1="1379" y1="63.5" x2="1349" y2="80.6"/>
	<line class="st2" x1="1349" y1="63.5" x2="1349" y2="45.9"/>
	<line class="st2" x1="1318.5" y1="98.2" x2="1334" y2="89.9"/>
	<line class="st2" x1="1379" y1="98.2" x2="1364" y2="89.9"/>
	<polyline class="st2" points="1408.8,81 1378.6,98.5 1378.6,133.3 	"/>
	<polyline class="st2" points="1438.9,133.3 1438.9,98.5 1408.8,81 	"/>
	<polyline class="st2" points="1408.9,133.2 1424,124.5 1424,107 	"/>
	<polyline class="st2" points="1408.9,98.3 1393.8,107 1393.8,124.5 1408.9,133.2 	"/>
	<polyline class="st2" points="1409,150.7 1409,115.6 1394,106.8 1378.5,98.5 	"/>
	<line class="st2" x1="1439" y1="98.5" x2="1409" y2="115.6"/>
	<line class="st2" x1="1409" y1="98.5" x2="1409" y2="80.9"/>
	<polyline class="st2" points="1409.8,11 1379.6,28.5 1379.6,63.3 1409.8,80.8 	"/>
	<path class="st2" d="M1409.8,11"/>
	<polyline class="st2" points="1409.8,80.8 1439.9,63.3 1439.9,28.5 	"/>
	<g>
		<path class="st3" d="M1409.9,29.5l14.1,8.1v16.3l-14.1,8.1l-14.1-8.1V37.6L1409.9,29.5 M1409.9,28.3l-15.1,8.7v17.4l15.1,8.7
			l15.1-8.7V37L1409.9,28.3L1409.9,28.3z"/>
	</g>
	<line class="st2" x1="1395" y1="36.8" x2="1379.5" y2="28.5"/>
	<line class="st2" x1="1410" y1="80.7" x2="1410" y2="45.6"/>
	<line class="st2" x1="1440" y1="28.5" x2="1410" y2="45.6"/>
	<line class="st2" x1="1410" y1="28.5" x2="1410" y2="10.9"/>
	<line class="st2" x1="1379.5" y1="63.2" x2="1395" y2="54.9"/>
	<line class="st2" x1="1440" y1="63.2" x2="1425" y2="54.9"/>
	<polyline class="st2" points="1469.8,46 1439.6,63.5 1439.6,98.3 1469.8,115.8 	"/>
	<path class="st2" d="M1469.8,46"/>
	<line class="st2" x1="1469.8" y1="115.8" x2="1499.9" y2="98.3"/>
	<g>
		<path class="st3" d="M1469.9,64.5l14.1,8.1v16.3l-14.1,8.1l-14.1-8.1V72.6L1469.9,64.5 M1469.9,63.3l-15.1,8.7v17.4l15.1,8.7
			l15.1-8.7V72L1469.9,63.3L1469.9,63.3z"/>
	</g>
	<polyline class="st2" points="1470,115.7 1470,80.6 1455,71.8 1439.5,63.5 	"/>
	<path class="st2" d="M1470,80.6"/>
	<line class="st2" x1="1470" y1="63.5" x2="1470" y2="45.9"/>
	<line class="st2" x1="1439.5" y1="98.2" x2="1455" y2="89.9"/>
	<line class="st2" x1="1500" y1="98.2" x2="1485" y2="89.9"/>
	<polyline class="st2" points="1318.6,-6.5 1318.6,28.3 1348.8,45.8 	"/>
	<line class="st2" x1="1348.8" y1="45.8" x2="1378.9" y2="28.3"/>
	<g>
		<path class="st3" d="M1348.9-5.5l14.1,8.1v16.3l-14.1,8.1l-14.1-8.1V2.6L1348.9-5.5 M1348.9-6.7L1333.8,2v17.4l15.1,8.7l15.1-8.7
			V2L1348.9-6.7L1348.9-6.7z"/>
	</g>
	<polyline class="st2" points="1349,45.7 1349,10.6 1334,1.8 1318.5,-6.5 	"/>
	<path class="st2" d="M1349,10.6"/>
	<line class="st2" x1="1318.5" y1="28.2" x2="1334" y2="19.9"/>
	<line class="st2" x1="1379" y1="28.2" x2="1364" y2="19.9"/>
	<g>
		<polyline class="st2" points="1138.8,98.8 1168.9,81.3 1168.9,46.5 1138.8,29 1108.6,46.5 1108.6,81.3 		"/>
		<g>
			<path class="st3" d="M1138.9,47.5l14.1,8.1v16.3l-14.1,8.1l-14.1-8.1V55.6L1138.9,47.5 M1138.9,46.3l-15.1,8.7v17.4l15.1,8.7
				l15.1-8.7V55L1138.9,46.3L1138.9,46.3z"/>
		</g>
		<polyline class="st2" points="1139,98.7 1139,63.6 1124,54.8 1108.5,46.5 		"/>
		<line class="st2" x1="1169" y1="46.5" x2="1139" y2="63.6"/>
		<line class="st2" x1="1139" y1="46.5" x2="1139" y2="28.9"/>
		<line class="st2" x1="1108.5" y1="81.2" x2="1124" y2="72.9"/>
		<line class="st2" x1="1169" y1="81.2" x2="1154" y2="72.9"/>
	</g>
</g>
<polyline class="st0" points="1107.9,81.5 1077.8,64 1047.6,81.5 1047.6,116.3 "/>
<line class="st0" x1="1077.8" y1="133.8" x2="1107.9" y2="116.3"/>
<g class="st1">
	<path class="st3" d="M1077.9,82.5l14.1,8.1v16.3l-14.1,8.1l-14.1-8.1V90.6L1077.9,82.5 M1077.9,81.3l-15.1,8.7v17.4l15.1,8.7
		l15.1-8.7V90L1077.9,81.3L1077.9,81.3z"/>
</g>
<polyline class="st0" points="1078,133.7 1078,98.6 1063,89.8 1047.5,81.5 "/>
<line class="st0" x1="1108" y1="81.5" x2="1078" y2="98.6"/>
<line class="st0" x1="1078" y1="81.5" x2="1078" y2="63.9"/>
<line class="st0" x1="1047.5" y1="116.2" x2="1063" y2="107.9"/>
<line class="st0" x1="1108" y1="116.2" x2="1093" y2="107.9"/>
<line class="st0" x1="987.6" y1="46.5" x2="987.6" y2="81.3"/>
<line class="st0" x1="1047.9" y1="46.5" x2="1017.8" y2="29"/>
<line class="st0" x1="1017.8" y1="98.8" x2="1047.9" y2="81.3"/>
<g class="st1">
	<path class="st3" d="M1017.9,47.5l14.1,8.1v16.3l-14.1,8.1l-14.1-8.1V55.6L1017.9,47.5 M1017.9,46.3l-15.1,8.7v17.4l15.1,8.7
		l15.1-8.7V55L1017.9,46.3L1017.9,46.3z"/>
</g>
<polyline class="st0" points="1018,98.7 1018,63.6 1003,54.8 987.5,46.5 "/>
<line class="st0" x1="1048" y1="46.5" x2="1018" y2="63.6"/>
<line class="st0" x1="1018" y1="46.5" x2="1018" y2="28.9"/>
<line class="st0" x1="987.5" y1="81.2" x2="1003" y2="72.9"/>
<line class="st0" x1="1048" y1="81.2" x2="1033" y2="72.9"/>
<line class="st0" x1="956.8" y1="133.8" x2="986.9" y2="116.3"/>
<g class="st1">
	<path class="st3" d="M956.9,82.5l14.1,8.1v16.3l-14.1,8.1l-14.1-8.1V90.6L956.9,82.5 M956.9,81.3L941.8,90v17.4l15.1,8.7l15.1-8.7
		V90L956.9,81.3L956.9,81.3z"/>
</g>
<polyline class="st0" points="957,133.7 957,98.6 942,89.8 926.5,81.5 "/>
<line class="st0" x1="987" y1="81.5" x2="957" y2="98.6"/>
<line class="st0" x1="957" y1="81.5" x2="957" y2="63.9"/>
<line class="st4" x1="926.5" y1="116.2" x2="942" y2="107.9"/>
<line class="st0" x1="987" y1="116.2" x2="972" y2="107.9"/>
<line class="st0" x1="956.8" y1="63.8" x2="986.9" y2="46.3"/>
<g class="st1">
	<path class="st3" d="M956.9,12.5l14.1,8.1v16.3L956.9,45l-14.1-8.1V20.6L956.9,12.5 M956.9,11.3L941.8,20v17.4l15.1,8.7l15.1-8.7
		V20L956.9,11.3L956.9,11.3z"/>
</g>
<polyline class="st0" points="957,63.7 957,28.6 942,19.8 926.5,11.5 "/>
<path class="st0" d="M957,28.6"/>
<path class="st0" d="M957-6.1"/>
<path class="st0" d="M957,11.5"/>
<line class="st4" x1="926.5" y1="46.2" x2="942" y2="37.9"/>
<line class="st0" x1="987" y1="46.2" x2="972" y2="37.9"/>
</svg>
