<?xml version="1.0" encoding="utf-8"?>
<!-- Generator: Adobe Illustrator 21.0.2, SVG Export Plug-In . SVG Version: 6.00 Build 0)  -->
<svg version="1.0" id="Layer_1" xmlns="http://www.w3.org/2000/svg" xmlns:xlink="http://www.w3.org/1999/xlink" x="0px" y="0px"
	 viewBox="0 0 1500 138" style="enable-background:new 0 0 1500 138;" xml:space="preserve">
<style type="text/css">
	.st0{fill:none;stroke:#CCCCCC;stroke-miterlimit:10;}
	.st1{fill:#CCCCCC;}
</style>
<polyline class="st0" points="537.2,98.8 507.1,81.3 476.8,98.8 476.8,133.6 "/>
<line class="st0" x1="507.1" y1="151.1" x2="537.2" y2="133.6"/>
<g>
	<path class="st1" d="M507.2,99.8l14.1,8.1v16.3l-14.1,8.1l-14.1-8.1v-16.3L507.2,99.8 M507.2,98.6l-15.1,8.7v17.4l15.1,8.7
		l15.1-8.7v-17.4L507.2,98.6L507.2,98.6z"/>
</g>
<polyline class="st0" points="507.3,151 507.3,115.9 492.3,107.1 476.8,98.8 "/>
<line class="st0" x1="537.3" y1="98.8" x2="507.3" y2="115.9"/>
<line class="st0" x1="507.3" y1="98.8" x2="507.3" y2="81.2"/>
<line class="st0" x1="476.8" y1="133.5" x2="492.3" y2="125.2"/>
<line class="st0" x1="537.3" y1="133.5" x2="522.3" y2="125.2"/>
<line class="st0" x1="416.8" y1="63.8" x2="416.8" y2="98.6"/>
<line class="st0" x1="477.2" y1="63.8" x2="447" y2="46.3"/>
<line class="st0" x1="447" y1="116.1" x2="477.2" y2="98.6"/>
<g>
	<path class="st1" d="M447.2,64.8l14.1,8.1v16.3l-14.1,8.1l-14.1-8.1V72.9L447.2,64.8 M447.2,63.6l-15.1,8.7v17.4l15.1,8.7l15.1-8.7
		V72.3L447.2,63.6L447.2,63.6z"/>
</g>
<polyline class="st0" points="447.3,116 447.3,80.9 432.3,72.1 416.8,63.8 "/>
<line class="st0" x1="477.3" y1="63.8" x2="447.3" y2="80.9"/>
<line class="st0" x1="447.3" y1="63.8" x2="447.3" y2="46.2"/>
<line class="st0" x1="416.8" y1="98.5" x2="432.3" y2="90.2"/>
<line class="st0" x1="477.3" y1="98.5" x2="462.3" y2="90.2"/>
<line class="st0" x1="386" y1="151.1" x2="416.2" y2="133.6"/>
<g>
	<path class="st1" d="M386.2,99.8l14.1,8.1v16.3l-14.1,8.1l-14.1-8.1v-16.3L386.2,99.8 M386.2,98.6l-15.1,8.7v17.4l15.1,8.7
		l15.1-8.7v-17.4L386.2,98.6L386.2,98.6z"/>
</g>
<polyline class="st0" points="386.3,151 386.3,115.9 371.3,107.1 355.8,98.8 "/>
<line class="st0" x1="416.3" y1="98.8" x2="386.3" y2="115.9"/>
<line class="st0" x1="386.3" y1="98.8" x2="386.3" y2="81.2"/>
<line class="st0" x1="355.8" y1="133.5" x2="371.3" y2="125.2"/>
<line class="st0" x1="416.3" y1="133.5" x2="401.3" y2="125.2"/>
<line class="st0" x1="386" y1="81.1" x2="416.2" y2="63.6"/>
<g>
	<path class="st1" d="M386.2,29.8l14.1,8.1v16.3l-14.1,8.1l-14.1-8.1V37.9L386.2,29.8 M386.2,28.6L371,37.3v17.4l15.1,8.7l15.1-8.7
		V37.3L386.2,28.6L386.2,28.6z"/>
</g>
<polyline class="st0" points="386.3,81 386.3,45.9 371.3,37.1 355.8,28.8 "/>
<path class="st0" d="M386.3,45.9"/>
<path class="st0" d="M386.3,11.2"/>
<path class="st0" d="M386.3,28.8"/>
<line class="st0" x1="355.8" y1="63.5" x2="371.3" y2="55.2"/>
<line class="st0" x1="416.3" y1="63.5" x2="401.3" y2="55.2"/>
<line class="st0" x1="234" y1="133.5" x2="249.5" y2="125.2"/>
<line class="st0" x1="294.5" y1="133.5" x2="279.5" y2="125.2"/>
<line class="st0" x1="234.4" y1="-6.2" x2="204.3" y2="-23.7"/>
<path class="st0" d="M234.5-6.2"/>
<line class="st0" x1="204.5" y1="-6.2" x2="204.5" y2="-23.8"/>
<g>
	<g>
		<g>
			<polyline class="st0" points="114.3,98.1 144.4,80.6 144.4,45.8 114.3,28.3 84.1,45.8 84.1,80.6 			"/>
			<g>
				<path class="st1" d="M114.4,46.8l14.1,8.1v16.3l-14.1,8.1l-14.1-8.1V54.9L114.4,46.8 M114.4,45.6l-15.1,8.7v17.4l15.1,8.7
					l15.1-8.7V54.3L114.4,45.6L114.4,45.6z"/>
			</g>
			<polyline class="st0" points="114.5,98 114.5,62.9 99.5,54.1 84,45.8 			"/>
			<line class="st0" x1="144.5" y1="45.8" x2="114.5" y2="62.9"/>
			<line class="st0" x1="114.5" y1="45.8" x2="114.5" y2="28.2"/>
			<line class="st0" x1="84" y1="80.5" x2="99.5" y2="72.2"/>
			<line class="st0" x1="144.5" y1="80.5" x2="129.5" y2="72.2"/>
		</g>
		<polyline class="st0" points="114.1,28.8 114.1,63.6 144.3,81.1 		"/>
		<path class="st0" d="M144.3,11.3"/>
		<polyline class="st0" points="144.3,81.1 174.4,63.6 174.4,28.8 144.3,11.3 		"/>
		<g>
			<path class="st1" d="M144.4,29.8l14.1,8.1v16.3l-14.1,8.1l-14.1-8.1V37.9L144.4,29.8 M144.4,28.6l-15.1,8.7v17.4l15.1,8.7
				l15.1-8.7V37.3L144.4,28.6L144.4,28.6z"/>
		</g>
		<polyline class="st0" points="144.5,81 144.5,45.9 129.5,37.1 114,28.8 		"/>
		<path class="st0" d="M144.5,45.9"/>
		<path class="st0" d="M174.5,28.8"/>
		<line class="st0" x1="144.5" y1="28.8" x2="144.5" y2="11.2"/>
		<line class="st0" x1="114" y1="63.5" x2="129.5" y2="55.2"/>
		<line class="st0" x1="174.5" y1="63.5" x2="159.5" y2="55.2"/>
		<g>
			<polyline class="st0" points="54.3,64.1 84.4,46.6 84.4,11.8 54.3,-5.7 24.1,11.8 24.1,46.6 			"/>
			<g>
				<path class="st1" d="M54.4,12.8l14.1,8.1v16.3l-14.1,8.1l-14.1-8.1V20.9L54.4,12.8 M54.4,11.6l-15.1,8.7v17.4l15.1,8.7l15.1-8.7
					V20.3L54.4,11.6L54.4,11.6z"/>
			</g>
			<polyline class="st0" points="54.5,64 54.5,28.9 39.5,20.1 24,11.8 			"/>
			<line class="st0" x1="84.5" y1="11.8" x2="54.5" y2="28.9"/>
			<line class="st0" x1="54.5" y1="11.8" x2="54.5" y2="-5.8"/>
			<line class="st0" x1="24" y1="46.5" x2="39.5" y2="38.2"/>
			<line class="st0" x1="84.5" y1="46.5" x2="69.5" y2="38.2"/>
		</g>
		<g>
			<polyline class="st0" points="54.3,134.1 84.4,116.6 84.4,81.8 54.3,64.3 24.1,81.8 24.1,116.6 			"/>
			<g>
				<path class="st1" d="M54.4,82.8l14.1,8.1v16.3l-14.1,8.1l-14.1-8.1V90.9L54.4,82.8 M54.4,81.6l-15.1,8.7v17.4l15.1,8.7l15.1-8.7
					V90.3L54.4,81.6L54.4,81.6z"/>
			</g>
			<polyline class="st0" points="54.5,134 54.5,98.9 39.5,90.1 24,81.8 			"/>
			<line class="st0" x1="84.5" y1="81.8" x2="54.5" y2="98.9"/>
			<line class="st0" x1="54.5" y1="81.8" x2="54.5" y2="64.2"/>
			<line class="st0" x1="24" y1="116.5" x2="39.5" y2="108.2"/>
			<line class="st0" x1="84.5" y1="116.5" x2="69.5" y2="108.2"/>
		</g>
	</g>
	<polyline class="st0" points="204.3,46.3 174.1,63.8 174.1,98.6 204.3,116.1 	"/>
	<polyline class="st0" points="204.3,116.1 234.4,98.6 234.4,63.8 204.3,46.3 	"/>
	<polyline class="st0" points="219.5,89.8 219.5,72.3 204.4,63.6 189.3,72.3 189.3,89.8 204.4,98.5 	"/>
	<path class="st0" d="M174,63.8"/>
	<polyline class="st0" points="204.5,116 204.5,80.9 189.5,72.1 	"/>
	<line class="st0" x1="234.5" y1="63.8" x2="204.5" y2="80.9"/>
	<line class="st0" x1="204.5" y1="63.8" x2="204.5" y2="46.2"/>
	<line class="st0" x1="174" y1="98.5" x2="189.5" y2="90.2"/>
	<line class="st0" x1="234.5" y1="98.5" x2="219.5" y2="90.2"/>
	<polyline class="st0" points="264.3,81.3 234.1,98.8 234.1,133.6 	"/>
	<polyline class="st0" points="294.4,133.6 294.4,98.8 264.3,81.3 	"/>
	<polyline class="st0" points="264.4,133.5 279.5,124.8 279.5,107.3 	"/>
	<polyline class="st0" points="264.4,98.6 249.3,107.3 249.3,124.8 264.4,133.5 	"/>
	<polyline class="st0" points="264.5,151 264.5,115.9 249.5,107.1 234,98.8 	"/>
	<line class="st0" x1="294.5" y1="98.8" x2="264.5" y2="115.9"/>
	<line class="st0" x1="264.5" y1="98.8" x2="264.5" y2="81.2"/>
	<polyline class="st0" points="265.3,11.3 235.1,28.8 235.1,63.6 265.3,81.1 	"/>
	<path class="st0" d="M265.3,11.3"/>
	<polyline class="st0" points="265.3,81.1 295.4,63.6 295.4,28.8 	"/>
	<g>
		<path class="st1" d="M265.4,29.8l14.1,8.1v16.3l-14.1,8.1l-14.1-8.1V37.9L265.4,29.8 M265.4,28.6l-15.1,8.7v17.4l15.1,8.7
			l15.1-8.7V37.3L265.4,28.6L265.4,28.6z"/>
	</g>
	<line class="st0" x1="250.5" y1="37.1" x2="235" y2="28.8"/>
	<line class="st0" x1="265.5" y1="81" x2="265.5" y2="45.9"/>
	<line class="st0" x1="295.5" y1="28.8" x2="265.5" y2="45.9"/>
	<line class="st0" x1="265.5" y1="28.8" x2="265.5" y2="11.2"/>
	<line class="st0" x1="235" y1="63.5" x2="250.5" y2="55.2"/>
	<line class="st0" x1="295.5" y1="63.5" x2="280.5" y2="55.2"/>
	<polyline class="st0" points="325.3,46.3 295.1,63.8 295.1,98.6 325.3,116.1 	"/>
	<path class="st0" d="M325.3,46.3"/>
	<line class="st0" x1="325.3" y1="116.1" x2="355.4" y2="98.6"/>
	<g>
		<path class="st1" d="M325.4,64.8l14.1,8.1v16.3l-14.1,8.1l-14.1-8.1V72.9L325.4,64.8 M325.4,63.6l-15.1,8.7v17.4l15.1,8.7
			l15.1-8.7V72.3L325.4,63.6L325.4,63.6z"/>
	</g>
	<polyline class="st0" points="325.5,116 325.5,80.9 310.5,72.1 295,63.8 	"/>
	<path class="st0" d="M325.5,80.9"/>
	<line class="st0" x1="325.5" y1="63.8" x2="325.5" y2="46.2"/>
	<line class="st0" x1="295" y1="98.5" x2="310.5" y2="90.2"/>
	<line class="st0" x1="355.5" y1="98.5" x2="340.5" y2="90.2"/>
	<polyline class="st0" points="174.1,-6.2 174.1,28.6 204.3,46.1 	"/>
	<line class="st0" x1="204.3" y1="46.1" x2="234.4" y2="28.6"/>
	<g>
		<path class="st1" d="M204.4-5.2l14.1,8.1v16.3l-14.1,8.1l-14.1-8.1V2.9L204.4-5.2 M204.4-6.4l-15.1,8.7v17.4l15.1,8.7l15.1-8.7
			V2.3L204.4-6.4L204.4-6.4z"/>
	</g>
	<polyline class="st0" points="204.5,46 204.5,10.9 189.5,2.1 174,-6.2 	"/>
	<path class="st0" d="M204.5,10.9"/>
	<line class="st0" x1="174" y1="28.5" x2="189.5" y2="20.2"/>
	<line class="st0" x1="234.5" y1="28.5" x2="219.5" y2="20.2"/>
	<g>
		<polyline class="st0" points="-5.7,99.1 24.4,81.6 24.4,46.8 -5.7,29.3 -35.9,46.8 -35.9,81.6 		"/>
		<g>
			<path class="st1" d="M-5.6,47.8l14.1,8.1v16.3l-14.1,8.1l-14.1-8.1V55.9L-5.6,47.8 M-5.6,46.6l-15.1,8.7v17.4l15.1,8.7l15.1-8.7
				V55.3L-5.6,46.6L-5.6,46.6z"/>
		</g>
		<polyline class="st0" points="-5.5,99 -5.5,63.9 -20.5,55.1 -36,46.8 		"/>
		<line class="st0" x1="24.5" y1="46.8" x2="-5.5" y2="63.9"/>
		<line class="st0" x1="-5.5" y1="46.8" x2="-5.5" y2="29.2"/>
		<line class="st0" x1="-36" y1="81.5" x2="-20.5" y2="73.2"/>
		<line class="st0" x1="24.5" y1="81.5" x2="9.5" y2="73.2"/>
	</g>
</g>
<polyline class="st0" points="-36.6,81.8 -66.7,64.3 -96.9,81.8 -96.9,116.6 "/>
<line class="st0" x1="-66.7" y1="134.1" x2="-36.6" y2="116.6"/>
<g>
	<path class="st1" d="M-66.6,82.8l14.1,8.1v16.3l-14.1,8.1l-14.1-8.1V90.9L-66.6,82.8 M-66.6,81.6l-15.1,8.7v17.4l15.1,8.7l15.1-8.7
		V90.3L-66.6,81.6L-66.6,81.6z"/>
</g>
<polyline class="st0" points="-66.5,134 -66.5,98.9 -81.5,90.1 -97,81.8 "/>
<line class="st0" x1="-36.5" y1="81.8" x2="-66.5" y2="98.9"/>
<line class="st0" x1="-66.5" y1="81.8" x2="-66.5" y2="64.2"/>
<line class="st0" x1="-97" y1="116.5" x2="-81.5" y2="108.2"/>
<line class="st0" x1="-36.5" y1="116.5" x2="-51.5" y2="108.2"/>
<line class="st0" x1="-156.9" y1="46.8" x2="-156.9" y2="81.6"/>
<line class="st0" x1="-96.6" y1="46.8" x2="-126.7" y2="29.3"/>
<line class="st0" x1="-126.7" y1="99.1" x2="-96.6" y2="81.6"/>
<g>
	<path class="st1" d="M-126.6,47.8l14.1,8.1v16.3l-14.1,8.1l-14.1-8.1V55.9L-126.6,47.8 M-126.6,46.6l-15.1,8.7v17.4l15.1,8.7
		l15.1-8.7V55.3L-126.6,46.6L-126.6,46.6z"/>
</g>
<polyline class="st0" points="-126.5,99 -126.5,63.9 -141.5,55.1 -157,46.8 "/>
<line class="st0" x1="-96.5" y1="46.8" x2="-126.5" y2="63.9"/>
<line class="st0" x1="-126.5" y1="46.8" x2="-126.5" y2="29.2"/>
<line class="st0" x1="-157" y1="81.5" x2="-141.5" y2="73.2"/>
<line class="st0" x1="-96.5" y1="81.5" x2="-111.5" y2="73.2"/>
<line class="st0" x1="-187.7" y1="134.1" x2="-157.6" y2="116.6"/>
<g>
	<path class="st1" d="M-187.6,82.8l14.1,8.1v16.3l-14.1,8.1l-14.1-8.1V90.9L-187.6,82.8 M-187.6,81.6l-15.1,8.7v17.4l15.1,8.7
		l15.1-8.7V90.3L-187.6,81.6L-187.6,81.6z"/>
</g>
<polyline class="st0" points="-187.5,134 -187.5,98.9 -202.5,90.1 -218,81.8 "/>
<line class="st0" x1="-157.5" y1="81.8" x2="-187.5" y2="98.9"/>
<line class="st0" x1="-187.5" y1="81.8" x2="-187.5" y2="64.2"/>
<line class="st0" x1="-218" y1="116.5" x2="-202.5" y2="108.2"/>
<line class="st0" x1="-157.5" y1="116.5" x2="-172.5" y2="108.2"/>
<line class="st0" x1="-187.7" y1="64.1" x2="-157.6" y2="46.6"/>
<g>
	<path class="st1" d="M-187.6,12.8l14.1,8.1v16.3l-14.1,8.1l-14.1-8.1V20.9L-187.6,12.8 M-187.6,11.6l-15.1,8.7v17.4l15.1,8.7
		l15.1-8.7V20.3L-187.6,11.6L-187.6,11.6z"/>
</g>
<polyline class="st0" points="-187.5,64 -187.5,28.9 -202.5,20.1 -218,11.8 "/>
<path class="st0" d="M-187.5,28.9"/>
<path class="st0" d="M-187.5-5.8"/>
<path class="st0" d="M-187.5,11.8"/>
<line class="st0" x1="-218" y1="46.5" x2="-202.5" y2="38.2"/>
<line class="st0" x1="-157.5" y1="46.5" x2="-172.5" y2="38.2"/>
</svg>
