<?xml version="1.0" encoding="utf-8"?>
<!-- Generator: Adobe Illustrator 21.0.2, SVG Export Plug-In . SVG Version: 6.00 Build 0)  -->
<svg version="1.0" id="Layer_1" xmlns="http://www.w3.org/2000/svg" xmlns:xlink="http://www.w3.org/1999/xlink" x="0px" y="0px"
	 viewBox="0 0 60 30" style="enable-background:new 0 0 60 30;" xml:space="preserve">
<style type="text/css">
	.st0{fill:none;stroke:#0071BC;stroke-width:0.25;stroke-miterlimit:10;}
</style>
<g>
	<polygon class="st0" points="8.2,4.5 4.6,6.6 4.7,10.9 8.4,13 11.9,11 11.9,6.7 	"/>
	<polygon class="st0" points="8.3,0.6 1.2,4.7 1.2,12.9 8.3,17 15.4,12.9 15.4,4.7 	"/>
	<polyline class="st0" points="8.3,17 8.4,13 8.4,8.8 	"/>
	<line class="st0" x1="11.9" y1="11" x2="15.4" y2="12.9"/>
	<line class="st0" x1="8.3" y1="0.6" x2="8.2" y2="4.5"/>
	<polyline class="st0" points="15.4,4.7 11.9,6.7 8.4,8.8 4.6,6.6 1.2,4.7 	"/>
	<line class="st0" x1="4.7" y1="10.9" x2="1.2" y2="12.9"/>
</g>
<g>
	<polygon class="st0" points="52.3,13.4 48.8,15.4 48.8,19.7 52.5,21.9 56.1,19.8 56,15.5 	"/>
	<polygon class="st0" points="52.4,9.4 45.3,13.5 45.3,21.7 52.4,25.8 59.5,21.7 59.5,13.5 	"/>
	<polyline class="st0" points="52.4,25.8 52.5,21.9 52.5,17.6 	"/>
	<line class="st0" x1="56.1" y1="19.8" x2="59.5" y2="21.7"/>
	<line class="st0" x1="52.4" y1="9.4" x2="52.3" y2="13.4"/>
	<polyline class="st0" points="59.5,13.5 56,15.5 52.5,17.6 48.8,15.4 45.3,13.5 	"/>
	<line class="st0" x1="48.8" y1="19.7" x2="45.3" y2="21.7"/>
</g>
<g>
	<polygon class="st0" points="22.9,13.4 19.3,15.4 19.4,19.7 23.1,21.9 26.7,19.8 26.6,15.5 	"/>
	<polygon class="st0" points="23,9.4 15.9,13.5 15.9,21.7 23,25.8 30.1,21.7 30.1,13.5 	"/>
	<polyline class="st0" points="23,25.8 23.1,21.9 23.1,17.6 	"/>
	<line class="st0" x1="26.7" y1="19.8" x2="30.1" y2="21.7"/>
	<line class="st0" x1="23" y1="9.4" x2="22.9" y2="13.4"/>
	<polyline class="st0" points="30.1,13.5 26.6,15.5 23.1,17.6 19.3,15.4 15.9,13.5 	"/>
	<line class="st0" x1="19.4" y1="19.7" x2="15.9" y2="21.7"/>
</g>
<g>
	<polygon class="st0" points="37.6,4.5 34,6.6 34.1,10.9 37.8,13 41.4,11 41.3,6.7 	"/>
	<polygon class="st0" points="37.7,0.6 30.6,4.7 30.6,12.9 37.7,17 44.8,12.9 44.8,4.7 	"/>
	<polyline class="st0" points="37.7,17 37.8,13 37.8,8.8 	"/>
	<line class="st0" x1="41.4" y1="11" x2="44.8" y2="12.9"/>
	<line class="st0" x1="37.7" y1="0.6" x2="37.6" y2="4.5"/>
	<polyline class="st0" points="44.8,4.7 41.3,6.7 37.8,8.8 34,6.6 30.6,4.7 	"/>
	<line class="st0" x1="34.1" y1="10.9" x2="30.6" y2="12.9"/>
</g>
</svg>
