<?xml version="1.0" encoding="utf-8"?>
<!-- Generator: Adobe Illustrator 21.0.2, SVG Export Plug-In . SVG Version: 6.00 Build 0)  -->
<svg version="1.0" id="Layer_1" xmlns="http://www.w3.org/2000/svg" xmlns:xlink="http://www.w3.org/1999/xlink" x="0px" y="0px"
	 viewBox="0 0 60 60" style="enable-background:new 0 0 60 60;" xml:space="preserve">
<style type="text/css">
	.st0{fill:#FFFFFF;}
</style>
<path class="st0" d="M29,1.9c7.8,0,14.9,3.2,20.1,8.3c5.1,5.1,8.3,12.2,8.3,20.1c0,7.8-3.2,14.9-8.3,20.1
	c-5.1,5.1-12.2,8.3-20.1,8.3c-7.8,0-14.9-3.2-20.1-8.3c-2.6-2.6-4.8-5.8-6.2-9.3H10c1,1.7,2.1,3.3,3.5,4.6c4,3.9,9.4,6.4,15.4,6.4
	c6,0,11.5-2.5,15.4-6.4c3.9-3.9,6.4-9.4,6.4-15.4c0-6-2.5-11.5-6.4-15.4C40.4,11,35,8.5,29,8.5c-6,0-11.5,2.4-15.4,6.4
	c-1.4,1.4-2.6,3-3.5,4.6H2.7c1.5-3.5,3.6-6.7,6.2-9.3C14,5.1,21.1,1.9,29,1.9L29,1.9z M2.7,24.2h16.9v-6l16.5,12.1L19.6,42.4v-6H2.7
	V24.2z"/>
</svg>
