<?xml version="1.0" encoding="utf-8"?>
<!-- Generator: Adobe Illustrator 21.0.2, SVG Export Plug-In . SVG Version: 6.00 Build 0)  -->
<svg version="1.0" xmlns="http://www.w3.org/2000/svg" xmlns:xlink="http://www.w3.org/1999/xlink" x="0px" y="0px"
	 viewBox="0 0 2114 418" style="enable-background:new 0 0 2114 418;" xml:space="preserve">
<style type="text/css">
	.st0{opacity:0.19;}
	.st1{fill:#FFFFFF;}
	.st2{fill:none;stroke:#000000;stroke-miterlimit:10;}
	.st3{fill:#66A5CC;}
	.st4{fill:#0083D8;}
	.st5{fill:#6699CC;}
	.st6{fill:#7CADFF;}
	.st7{fill:none;}
	.st8{fill:#66BFD4;}
	.st9{fill:url(#SVGID_1_);}
	.st10{fill:url(#SVGID_2_);}
	.st11{fill:url(#SVGID_3_);}
	.st12{fill:url(#SVGID_4_);}
	.st13{fill:url(#SVGID_5_);}
	.st14{fill:none;stroke:url(#SVGID_6_);stroke-miterlimit:10;}
	.st15{fill:none;stroke:url(#SVGID_7_);stroke-miterlimit:10;}
	.st16{fill:none;stroke:url(#SVGID_8_);stroke-miterlimit:10;}
	.st17{fill:url(#SVGID_9_);}
	.st18{fill:url(#SVGID_10_);}
	.st19{fill:url(#SVGID_11_);}
	.st20{fill:url(#SVGID_12_);}
	.st21{fill:url(#SVGID_13_);}
	.st22{fill:url(#SVGID_14_);}
	.st23{fill:url(#SVGID_15_);}
	.st24{fill:url(#SVGID_16_);}
	.st25{fill:url(#SVGID_17_);}
	.st26{fill:url(#SVGID_18_);}
	.st27{fill:url(#SVGID_19_);}
	.st28{fill:url(#SVGID_20_);}
	.st29{fill:url(#SVGID_21_);}
	.st30{fill:url(#SVGID_22_);}
	.st31{fill:url(#SVGID_23_);}
	.st32{fill:url(#SVGID_24_);}
	.st33{fill:url(#SVGID_25_);}
	.st34{fill:url(#SVGID_26_);}
	.st35{fill:url(#SVGID_27_);}
	.st36{fill:url(#SVGID_28_);}
	.st37{fill:url(#SVGID_29_);}
	.st38{fill:url(#SVGID_30_);}
	.st39{fill:url(#SVGID_31_);}
	.st40{opacity:0.19;fill:none;}
</style>
<g id="Layer_1">
	<g id="XMLID_3_" class="st0">
		<g>
			<rect x="0.5" y="-0.5" class="st1" width="2114" height="418"/>
		</g>
		<g>
			<polyline class="st2" points="2114.5,-0.5 2114.5,417.5 0.5,417.5 0.5,-0.5 			"/>
		</g>
	</g>
</g>
<g id="Layer_2">
	<g>
		<polygon class="st2" points="122.4,-761.7 -37.5,-645.6 23.6,-457.6 221.2,-457.6 282.2,-645.6 		"/>
		<polyline class="st2" points="282.5,-645.5 122.5,-609.5 221.5,-457.5 23.5,-457.5 122.5,-609.5 122.5,-761.5 		"/>
		<line class="st2" x1="-37.5" y1="-645.5" x2="122.5" y2="-609.5"/>
	</g>
	<g class="st0">
		<g id="XMLID_2_">
			<g>
				<polygon class="st3" points="440.5,-0.5 431.3,137.6 317.5,163 317.5,0 317.5,-0.5 				"/>
				<polygon class="st4" points="431.3,137.6 412.5,417.5 317.5,163 				"/>
				<polygon class="st3" points="317.5,163 412.5,417.5 2.5,417 				"/>
				<polygon class="st4" points="317.5,0 317.5,163 68.5,-0.5 317.5,-0.5 				"/>
				<polygon class="st5" points="317.5,163 2.5,417 68.5,-0.5 				"/>
			</g>
			<g>
			</g>
		</g>
	</g>
	<g class="st0">
		<g>
			<g id="XMLID_1_">
				<g>
					<polygon class="st3" points="2086.5,375.5 2114.5,418.5 1930.5,376.5 					"/>
					<polygon class="st4" points="2114.5,418.5 1745.5,417.5 1930.5,376.5 					"/>
					<polygon class="st4" points="2086.5,375.5 1930.5,376.5 1928.4,308.5 1928.5,308.5 					"/>
					<polygon class="st3" points="1928.4,308.5 1930.5,376.5 1639.5,354.5 1928.4,308.3 1928.4,308.3 					"/>
					<polygon class="st4" points="1930.5,376.5 1745.5,417.5 1743.8,416.5 1745.5,416.5 1673.7,374.8 1639.5,354.5 					"/>
					<polygon class="st4" points="1745.5,416.5 1743.8,416.5 1743,416 					"/>
					<polygon class="st4" points="1745.5,416.5 1743,416 1673.7,374.8 					"/>
					<polygon class="st4" points="1743.8,416.5 1320.4,416.4 1270.5,321.5 1743,416 					"/>
					<polygon class="st3" points="1743,416 1270.5,321.5 1221.5,112.5 1046.5,127.5 1221.4,112.3 1673.7,374.8 					"/>
					<polygon class="st4" points="1320.4,416.4 1320.5,416.5 1122.5,416.5 1122.7,416.4 1320.2,416.4 					"/>
					<polygon class="st4" points="1270.5,321.5 1320.4,416.4 1320.2,416.4 1122.7,416.4 					"/>
					<polygon class="st5" points="1046.5,127.5 1221.5,112.5 1270.5,321.5 					"/>
					<polygon class="st4" points="1270.5,321.5 1122.7,416.4 1122.6,416.4 1046.5,127.5 					"/>
					<polygon class="st3" points="1122.7,416.4 1122.5,416.5 1122.3,417 1122.1,416.9 1122.2,416.9 752.5,-0.5 1046.5,127.5 
						1122.6,416.4 					"/>
					<polygon class="st4" points="1122.5,417 522.5,418.5 1122.1,416.9 1122.3,417 					"/>
					<polygon class="st4" points="752.5,-0.5 1122.2,416.9 1122.1,416.9 718.5,285.5 718.6,284.5 					"/>
					<polygon class="st3" points="1122.1,416.9 522.5,418.5 718.5,286.5 716,283.2 718.5,284.5 718.6,284.5 718.5,285.5 					"/>
					<polygon class="st6" points="752.5,-0.5 718.6,284.5 718.5,284.5 716,283.2 500.5,0.5 500.5,-0.5 					"/>
					<polygon class="st4" points="716,283.2 718.5,286.5 522.5,418.5 431.5,137.5 					"/>
					<polygon class="st4" points="500.5,0.5 716,283.2 431.5,137.5 440.5,-0.5 500.5,-0.5 					"/>
				</g>
				<g>
				</g>
			</g>
		</g>
		<polygon class="st7" points="422.4,-468.2 262.5,-352.1 352.5,-195.5 718.5,284.5 794.5,-352.5 		"/>
		<polyline class="st7" points="794.5,-352.5 548.5,-315.5 718.5,287.5 352.5,-195.5 548.5,-314.5 422.5,-468 		"/>
		<line class="st7" x1="262.5" y1="-352" x2="548.5" y2="-315.5"/>
	</g>
	<g class="st0">
		<g id="XMLID_4_">
			<g>
				<polygon class="st8" points="431.5,137.5 586.5,610.5 440.5,643.5 				"/>
				<polygon class="st8" points="586.5,610.5 539.2,795.1 440.5,643.5 				"/>
				<polygon class="st8" points="539.2,795.1 539.5,795.5 341.5,795.5 341.6,795.4 539.2,795.4 				"/>
				<polygon class="st8" points="440.5,643.5 539.2,795.1 539.2,795.4 341.6,795.4 				"/>
				<polygon class="st8" points="431.5,137.5 440.5,643.5 396.5,596.5 396.1,596.4 398.5,587.5 				"/>
				<polygon class="st8" points="396.5,596.5 440.5,643.5 341.6,795.4 341.6,795.4 396.1,596.4 				"/>
			</g>
			<g>
			</g>
		</g>
	</g>
	<g class="st0">
		<g id="XMLID_5_">
			<g>
				<polygon class="st8" points="-43.5,-216.5 68.5,-0.5 -77.5,63.5 -80.5,-107.3 				"/>
				<polygon class="st8" points="68.5,-0.5 2.5,417.5 -77.5,63.5 				"/>
				<polygon class="st8" points="-77.5,63.5 2.5,417.5 -176.4,215.4 				"/>
				<polygon class="st8" points="-176.4,215.4 2.5,417.5 -176.5,215.5 				"/>
				<polygon class="st8" points="-80.5,-107.3 -77.5,63.5 -121.5,16.5 -121.9,16.4 -119.5,7.5 				"/>
				<polygon class="st8" points="-121.5,16.5 -77.5,63.5 -176.4,215.4 -176.4,215.4 -121.9,16.4 				"/>
			</g>
			<g>
			</g>
		</g>
	</g>
	<g class="st0">
		<g id="XMLID_7_">
			<g>
				<linearGradient id="SVGID_1_" gradientUnits="userSpaceOnUse" x1="317.5" y1="81.25" x2="440.5" y2="81.25">
					<stop  offset="0" style="stop-color:#FFFFFF;stop-opacity:0"/>
					<stop  offset="1" style="stop-color:#000000"/>
				</linearGradient>
				<polygon class="st9" points="440.5,-0.5 431.3,137.6 317.5,163 317.5,0 317.5,-0.5 				"/>
				<linearGradient id="SVGID_2_" gradientUnits="userSpaceOnUse" x1="317.5" y1="277.53" x2="431.25" y2="277.53">
					<stop  offset="0" style="stop-color:#FFFFFF;stop-opacity:0"/>
					<stop  offset="1" style="stop-color:#000000"/>
				</linearGradient>
				<polygon class="st10" points="431.3,137.6 412.5,417.5 317.5,163 				"/>
				<linearGradient id="SVGID_3_" gradientUnits="userSpaceOnUse" x1="2.5" y1="290.25" x2="412.5" y2="290.25">
					<stop  offset="0" style="stop-color:#FFFFFF;stop-opacity:0"/>
					<stop  offset="1" style="stop-color:#000000"/>
				</linearGradient>
				<polygon class="st11" points="317.5,163 412.5,417.5 2.5,417 				"/>
				<linearGradient id="SVGID_4_" gradientUnits="userSpaceOnUse" x1="68.5" y1="81.25" x2="317.5" y2="81.25">
					<stop  offset="0" style="stop-color:#FFFFFF;stop-opacity:0"/>
					<stop  offset="1" style="stop-color:#000000"/>
				</linearGradient>
				<polygon class="st12" points="317.5,0 317.5,163 68.5,-0.5 317.5,-0.5 				"/>
				<linearGradient id="SVGID_5_" gradientUnits="userSpaceOnUse" x1="2.5" y1="208.25" x2="317.5" y2="208.25">
					<stop  offset="0" style="stop-color:#FFFFFF;stop-opacity:0"/>
					<stop  offset="1" style="stop-color:#000000"/>
				</linearGradient>
				<polygon class="st13" points="317.5,163 2.5,417 68.5,-0.5 				"/>
			</g>
			<g>
				<linearGradient id="SVGID_6_" gradientUnits="userSpaceOnUse" x1="2.0061" y1="208.2667" x2="441.0346" y2="208.2667">
					<stop  offset="0" style="stop-color:#FFFFFF;stop-opacity:0"/>
					<stop  offset="1" style="stop-color:#000000"/>
				</linearGradient>
				<polyline class="st14" points="412.5,417.5 431.3,137.6 440.5,-0.5 317.5,-0.5 68.5,-0.5 2.5,417 				"/>
				<linearGradient id="SVGID_7_" gradientUnits="userSpaceOnUse" x1="1.0855" y1="209.0004" x2="431.6167" y2="209.0004">
					<stop  offset="0" style="stop-color:#FFFFFF;stop-opacity:0"/>
					<stop  offset="1" style="stop-color:#000000"/>
				</linearGradient>
				<polyline class="st15" points="431.5,137.5 431.3,137.6 317.5,163 412.5,417.5 2.5,417 317.5,163 317.5,0 				"/>
				<linearGradient id="SVGID_8_" gradientUnits="userSpaceOnUse" x1="68.2256" y1="81.25" x2="317.7744" y2="81.25">
					<stop  offset="0" style="stop-color:#FFFFFF;stop-opacity:0"/>
					<stop  offset="1" style="stop-color:#000000"/>
				</linearGradient>
				<line class="st16" x1="68.5" y1="-0.5" x2="317.5" y2="163"/>
			</g>
		</g>
	</g>
	<g class="st0">
		<g>
			<g id="XMLID_8_">
				<g>
					<linearGradient id="SVGID_9_" gradientUnits="userSpaceOnUse" x1="1930.5" y1="397" x2="2114.5" y2="397">
						<stop  offset="0" style="stop-color:#FFFFFF;stop-opacity:0"/>
						<stop  offset="1" style="stop-color:#000000"/>
					</linearGradient>
					<polygon class="st17" points="2086.5,375.5 2114.5,418.5 1930.5,376.5 					"/>
					<linearGradient id="SVGID_10_" gradientUnits="userSpaceOnUse" x1="1745.5" y1="397.5" x2="2114.5" y2="397.5">
						<stop  offset="0" style="stop-color:#FFFFFF;stop-opacity:0"/>
						<stop  offset="1" style="stop-color:#000000"/>
					</linearGradient>
					<polygon class="st18" points="2114.5,418.5 1745.5,417.5 1930.5,376.5 					"/>
					<linearGradient id="SVGID_11_" gradientUnits="userSpaceOnUse" x1="1928.4399" y1="342.5" x2="2086.5" y2="342.5">
						<stop  offset="0" style="stop-color:#FFFFFF;stop-opacity:0"/>
						<stop  offset="1" style="stop-color:#000000"/>
					</linearGradient>
					<polygon class="st19" points="2086.5,375.5 1930.5,376.5 1928.4,308.5 1928.5,308.5 					"/>
					<linearGradient id="SVGID_12_" gradientUnits="userSpaceOnUse" x1="1639.5" y1="342.375" x2="1930.5" y2="342.375">
						<stop  offset="0" style="stop-color:#FFFFFF;stop-opacity:0"/>
						<stop  offset="1" style="stop-color:#000000"/>
					</linearGradient>
					<polygon class="st20" points="1928.4,308.5 1930.5,376.5 1639.5,354.5 1928.4,308.3 1928.4,308.3 					"/>
					<linearGradient id="SVGID_13_" gradientUnits="userSpaceOnUse" x1="1639.5" y1="386" x2="1930.5" y2="386">
						<stop  offset="0" style="stop-color:#FFFFFF;stop-opacity:0"/>
						<stop  offset="1" style="stop-color:#000000"/>
					</linearGradient>
					<polygon class="st21" points="1930.5,376.5 1745.5,417.5 1743.8,416.5 1745.5,416.5 1673.7,374.8 1639.5,354.5 					"/>
					<linearGradient id="SVGID_14_" gradientUnits="userSpaceOnUse" x1="1742.96" y1="416.245" x2="1745.5" y2="416.245">
						<stop  offset="0" style="stop-color:#FFFFFF;stop-opacity:0"/>
						<stop  offset="1" style="stop-color:#000000"/>
					</linearGradient>
					<polygon class="st22" points="1745.5,416.5 1743.8,416.5 1743,416 					"/>
					<linearGradient id="SVGID_15_" gradientUnits="userSpaceOnUse" x1="1673.71" y1="395.665" x2="1745.5" y2="395.665">
						<stop  offset="0" style="stop-color:#FFFFFF;stop-opacity:0"/>
						<stop  offset="1" style="stop-color:#000000"/>
					</linearGradient>
					<polygon class="st23" points="1745.5,416.5 1743,416 1673.7,374.8 					"/>
					<linearGradient id="SVGID_16_" gradientUnits="userSpaceOnUse" x1="1270.5" y1="369" x2="1743.8199" y2="369">
						<stop  offset="0" style="stop-color:#FFFFFF;stop-opacity:0"/>
						<stop  offset="1" style="stop-color:#000000"/>
					</linearGradient>
					<polygon class="st24" points="1743.8,416.5 1320.4,416.4 1270.5,321.5 1743,416 					"/>
					<linearGradient id="SVGID_17_" gradientUnits="userSpaceOnUse" x1="1046.5" y1="264.14" x2="1742.96" y2="264.14">
						<stop  offset="0" style="stop-color:#FFFFFF;stop-opacity:0"/>
						<stop  offset="1" style="stop-color:#000000"/>
					</linearGradient>
					<polygon class="st25" points="1743,416 1270.5,321.5 1221.5,112.5 1046.5,127.5 1221.4,112.3 1673.7,374.8 					"/>
					<linearGradient id="SVGID_18_" gradientUnits="userSpaceOnUse" x1="1122.5" y1="416.435" x2="1320.5" y2="416.435">
						<stop  offset="0" style="stop-color:#FFFFFF;stop-opacity:0"/>
						<stop  offset="1" style="stop-color:#000000"/>
					</linearGradient>
					<polygon class="st26" points="1320.4,416.4 1320.5,416.5 1122.5,416.5 1122.7,416.4 1320.2,416.4 					"/>
					<linearGradient id="SVGID_19_" gradientUnits="userSpaceOnUse" x1="1122.7" y1="368.935" x2="1320.4301" y2="368.935">
						<stop  offset="0" style="stop-color:#FFFFFF;stop-opacity:0"/>
						<stop  offset="1" style="stop-color:#000000"/>
					</linearGradient>
					<polygon class="st27" points="1270.5,321.5 1320.4,416.4 1320.2,416.4 1122.7,416.4 					"/>
					<linearGradient id="SVGID_20_" gradientUnits="userSpaceOnUse" x1="1046.5" y1="217" x2="1270.5" y2="217">
						<stop  offset="0" style="stop-color:#FFFFFF;stop-opacity:0"/>
						<stop  offset="1" style="stop-color:#000000"/>
					</linearGradient>
					<polygon class="st28" points="1046.5,127.5 1221.5,112.5 1270.5,321.5 					"/>
					<linearGradient id="SVGID_21_" gradientUnits="userSpaceOnUse" x1="1046.5" y1="271.935" x2="1270.5" y2="271.935">
						<stop  offset="0" style="stop-color:#FFFFFF;stop-opacity:0"/>
						<stop  offset="1" style="stop-color:#000000"/>
					</linearGradient>
					<polygon class="st29" points="1270.5,321.5 1122.7,416.4 1122.6,416.4 1046.5,127.5 					"/>
					<linearGradient id="SVGID_22_" gradientUnits="userSpaceOnUse" x1="752.5" y1="208.225" x2="1122.7" y2="208.225">
						<stop  offset="0" style="stop-color:#FFFFFF;stop-opacity:0"/>
						<stop  offset="1" style="stop-color:#000000"/>
					</linearGradient>
					<polygon class="st30" points="1122.7,416.4 1122.5,416.5 1122.3,417 1122.1,416.9 1122.2,416.9 752.5,-0.5 1046.5,127.5 
						1122.6,416.4 					"/>
					<linearGradient id="SVGID_23_" gradientUnits="userSpaceOnUse" x1="522.5" y1="417.685" x2="1122.5" y2="417.685">
						<stop  offset="0" style="stop-color:#FFFFFF;stop-opacity:0"/>
						<stop  offset="1" style="stop-color:#000000"/>
					</linearGradient>
					<polygon class="st31" points="1122.5,417 522.5,418.5 1122.1,416.9 1122.3,417 					"/>
					<linearGradient id="SVGID_24_" gradientUnits="userSpaceOnUse" x1="718.5" y1="208.185" x2="1122.17" y2="208.185">
						<stop  offset="0" style="stop-color:#FFFFFF;stop-opacity:0"/>
						<stop  offset="1" style="stop-color:#000000"/>
					</linearGradient>
					<polygon class="st32" points="752.5,-0.5 1122.2,416.9 1122.1,416.9 718.5,285.5 718.6,284.5 					"/>
					<linearGradient id="SVGID_25_" gradientUnits="userSpaceOnUse" x1="522.5" y1="350.86" x2="1122.1" y2="350.86">
						<stop  offset="0" style="stop-color:#FFFFFF;stop-opacity:0"/>
						<stop  offset="1" style="stop-color:#000000"/>
					</linearGradient>
					<polygon class="st33" points="1122.1,416.9 522.5,418.5 718.5,286.5 716,283.2 718.5,284.5 718.6,284.5 718.5,285.5 					"/>
					<linearGradient id="SVGID_26_" gradientUnits="userSpaceOnUse" x1="524.48" y1="142.005" x2="752.5" y2="142.005">
						<stop  offset="0" style="stop-color:#FFFFFF;stop-opacity:0"/>
						<stop  offset="1" style="stop-color:#000000"/>
					</linearGradient>
					<polygon class="st34" points="752.5,-0.5 718.6,284.5 718.5,284.5 716,283.2 524.5,32 					"/>
					<linearGradient id="SVGID_27_" gradientUnits="userSpaceOnUse" x1="431.5" y1="278" x2="718.5" y2="278">
						<stop  offset="0" style="stop-color:#FFFFFF;stop-opacity:0"/>
						<stop  offset="1" style="stop-color:#000000"/>
					</linearGradient>
					<polygon class="st35" points="716,283.2 718.5,286.5 522.5,418.5 431.5,137.5 					"/>
					<linearGradient id="SVGID_28_" gradientUnits="userSpaceOnUse" x1="431.5" y1="157.59" x2="716" y2="157.59">
						<stop  offset="0" style="stop-color:#FFFFFF;stop-opacity:0"/>
						<stop  offset="1" style="stop-color:#000000"/>
					</linearGradient>
					<polygon class="st36" points="524.5,32 716,283.2 431.5,137.5 464.5,40.5 					"/>
				</g>
				<g>
				</g>
			</g>
		</g>
		<linearGradient id="SVGID_29_" gradientUnits="userSpaceOnUse" x1="262.5" y1="-91.8569" x2="794.5" y2="-91.8569">
			<stop  offset="0" style="stop-color:#FFFFFF;stop-opacity:0"/>
			<stop  offset="1" style="stop-color:#000000"/>
		</linearGradient>
		<polygon class="st37" points="422.4,-468.2 262.5,-352.1 352.5,-195.5 718.5,284.5 794.5,-352.5 		"/>
		<linearGradient id="SVGID_30_" gradientUnits="userSpaceOnUse" x1="352.5" y1="-90.25" x2="794.5" y2="-90.25">
			<stop  offset="0" style="stop-color:#FFFFFF;stop-opacity:0"/>
			<stop  offset="1" style="stop-color:#000000"/>
		</linearGradient>
		<polyline class="st38" points="794.5,-352.5 548.5,-315.5 718.5,287.5 352.5,-195.5 548.5,-314.5 422.5,-468 		"/>
		<linearGradient id="SVGID_31_" gradientUnits="userSpaceOnUse" x1="262.5" y1="-333.75" x2="548.5" y2="-333.75">
			<stop  offset="0" style="stop-color:#FFFFFF;stop-opacity:0"/>
			<stop  offset="1" style="stop-color:#000000"/>
		</linearGradient>
		<line class="st39" x1="262.5" y1="-352" x2="548.5" y2="-315.5"/>
	</g>
</g>
<g id="Layer_3">
	<rect class="st40" width="2114" height="416"/>
</g>
</svg>
